<?xml version="1.0" standalone="no"?>
<!DOCTYPE svg PUBLIC "-//W3C//DTD SVG 1.1//EN" "http://www.w3.org/Graphics/SVG/1.1/DTD/svg11.dtd" >
<svg xmlns="http://www.w3.org/2000/svg" xmlns:xlink="http://www.w3.org/1999/xlink" version="1.1">
<metadata>
Created by FontForge 20170731 at Thu Feb  9 22:30:06 2012
 By ,,,
Copyright (c) 2011, Pablo Impallari (www.impallari.com|impallari@gmail.com),Copyright (c) 2011, Igino Marini. (www.ikern.com|mail@iginomarini.com),Copyright (c) 2011, Brenda Gallo. (gbrenda1987@gmail.com),with Reserved Font Name Quattrocento Sans.
</metadata>
<defs>
<font id="QuattrocentoSans-Italic" horiz-adv-x="575" >
  <font-face 
    font-family="Quattrocento Sans"
    font-weight="400"
    font-style="italic"
    font-stretch="normal"
    units-per-em="1000"
    panose-1="2 11 5 2 5 0 0 2 0 3"
    ascent="800"
    descent="-200"
    x-height="460"
    cap-height="660"
    bbox="-143 -260 1150 848"
    underline-thickness="48"
    underline-position="-191"
    unicode-range="U+000D-FB02"
  />
<missing-glyph horiz-adv-x="266" 
d="M115 231q0 31 26 56t58 25q23 0 39 -17.5t16 -41.5q0 -31 -26.5 -54t-57.5 -23q-24 0 -39.5 15.5t-15.5 39.5z" />
    <glyph glyph-name="fi" unicode="fi" horiz-adv-x="523" 
d="M-12 -260l144 673h-77l8 37l79 9q36 171 98 237q47 49 112 49q80 0 147 -50l-47 -60q-44 31 -71 44.5t-53 13.5q-41 0 -61 -37t-42 -136l-13 -60h108l-10 -47h-108l-144 -673h-70zM487 460l-98 -460h-70l98 460h70z" />
    <glyph glyph-name="fl" unicode="fl" horiz-adv-x="536" 
d="M-11 -260l143 673h-77l8 37l79 9q35 168 111 237q53 49 110 49q88 0 150 -26l39 21l-157 -740h-70l141 665q-49 28 -133 28q-71 0 -108 -173l-13 -60h108l-10 -47h-108l-143 -673h-70z" />
    <glyph glyph-name=".notdef" horiz-adv-x="266" 
d="M115 231q0 31 26 56t58 25q23 0 39 -17.5t16 -41.5q0 -31 -26.5 -54t-57.5 -23q-24 0 -39.5 15.5t-15.5 39.5z" />
    <glyph glyph-name=".null" horiz-adv-x="0" 
 />
    <glyph glyph-name="nonmarkingreturn" horiz-adv-x="333" 
 />
    <glyph glyph-name="NULL" horiz-adv-x="0" 
 />
    <glyph glyph-name="NULL" horiz-adv-x="0" 
 />
    <glyph glyph-name="CR" unicode="&#xd;" horiz-adv-x="245" 
 />
    <glyph glyph-name="space" unicode=" " horiz-adv-x="245" 
 />
    <glyph glyph-name="exclam" unicode="!" horiz-adv-x="259" 
d="M31 27q0 21 18.5 38.5t40.5 17.5q16 0 26.5 -12t10.5 -29q0 -20 -18.5 -36.5t-38.5 -16.5q-17 0 -28 11t-11 27zM126 150h-47l89 532h97z" />
    <glyph glyph-name="quotedbl" unicode="&#x22;" horiz-adv-x="333" 
d="M165 516h-36l25 216h81zM302 516h-36l25 216h81z" />
    <glyph glyph-name="numbersign" unicode="#" horiz-adv-x="616" 
d="M582 654l-89 -208h122l-21 -52h-123l-50 -119h127l-21 -53h-129l-94 -222h-64l94 222h-126l-94 -222h-64l94 222h-116l21 53h118l50 119h-122l21 52h123l89 208h64l-89 -208h126l89 208h64zM281 394l-50 -119h126l50 119h-126z" />
    <glyph glyph-name="dollar" unicode="$" horiz-adv-x="531" 
d="M402 750l-19 -86q85 -6 144 -37l-37 -77q-37 40 -121 47l-46 -219q71 -26 111 -62t40 -102q0 -103 -66.5 -159t-167.5 -65l-18 -86h-60l18 85q-107 4 -185 54l37 73q36 -30 70.5 -45t91.5 -17l55 259q-73 27 -109.5 61t-36.5 91q0 92 61 142t159 57l19 86h60zM392 183
q0 67 -88 108l-50 -235q71 9 104.5 43t33.5 84zM179 484q0 -29 20.5 -47.5t67.5 -37.5l42 199q-61 -5 -95.5 -34t-34.5 -80z" />
    <glyph glyph-name="percent" unicode="%" horiz-adv-x="822" 
d="M271 665q55 0 84.5 -39.5t29.5 -101.5q0 -88 -56.5 -159t-140.5 -71q-54 0 -82 38.5t-28 98.5q0 94 56 164t137 70zM199 339q63 0 97 56.5t34 128.5q0 44 -17.5 70t-52.5 26t-61 -18.5t-39.5 -48t-19.5 -60t-6 -61.5q0 -93 65 -93zM763 691l-615 -715h-65l615 715h65z
M655 364q55 0 84.5 -40t29.5 -101q0 -88 -56.5 -159t-140.5 -71q-54 0 -82 38.5t-28 98.5q0 94 56 164t137 70zM583 38q63 0 97 56.5t34 128.5q0 44 -17.5 70t-52.5 26t-61 -18.5t-39.5 -48t-19.5 -60t-6 -61.5q0 -93 65 -93z" />
    <glyph glyph-name="ampersand" unicode="&#x26;" horiz-adv-x="697" 
d="M441 390l259 37l-13 -62l-137 -12q12 -36 12 -78q0 -89 -63 -165l83 -110h-84l-48 62q-94 -74 -218 -74q-95 0 -145 45t-50 113q0 64 48.5 128.5t130.5 96.5q-34 53 -34 112q0 84 54 133t130 49q69 0 130 -44l-36 -71q-17 22 -46.5 36t-59.5 14q-43 0 -72.5 -29
t-29.5 -85q0 -49 30 -88l179 -239q36 53 36 112q0 36 -15 76l-51 -4zM255 54q92 0 160 55l-165 215q-59 -18 -96.5 -63t-37.5 -99q0 -51 37.5 -79.5t101.5 -28.5z" />
    <glyph glyph-name="quotesingle" unicode="'" horiz-adv-x="196" 
d="M165 516h-36l25 216h81z" />
    <glyph glyph-name="parenleft" unicode="(" horiz-adv-x="311" 
d="M359 771l36 -13q-50 -45 -80.5 -76.5t-69.5 -84.5t-60 -106t-36.5 -130.5t-15.5 -168.5q0 -70 18.5 -151t58.5 -145l-39 -13q-58 64 -89.5 156t-31.5 189q0 153 82 292t227 251z" />
    <glyph glyph-name="parenright" unicode=")" horiz-adv-x="310" 
d="M122 758l41 13q58 -65 89 -156.5t31 -189.5q0 -153 -82.5 -293t-226.5 -249l-34 13q136 127 198.5 258.5t62.5 312.5q0 174 -79 291z" />
    <glyph glyph-name="asterisk" unicode="*" horiz-adv-x="438" 
d="M341 702l-44 -134l125 81l21 -58l-135 -54l112 -53l-44 -57l-92 79l-13 -132h-65l42 132l-125 -79l-20 57l134 53l-111 54l45 58l90 -81l14 134h66z" />
    <glyph glyph-name="plus" unicode="+" horiz-adv-x="493" 
d="M304 427l-34 -162h172l-11 -52h-172l-37 -172h-52l37 172h-171l11 52h171l34 162h52z" />
    <glyph glyph-name="comma" unicode="," horiz-adv-x="240" 
d="M10 -97l-16 19l55 73h-25l19 90h79l-23 -105z" />
    <glyph glyph-name="hyphen" unicode="-" horiz-adv-x="486" 
d="M72 265h338l-11 -52h-338z" />
    <glyph glyph-name="period" unicode="." horiz-adv-x="232" 
d="M22 27q0 21 18 38.5t40 17.5q16 0 27 -12t11 -29q0 -20 -18.5 -36.5t-39.5 -16.5q-17 0 -27.5 11t-10.5 27z" />
    <glyph glyph-name="slash" unicode="/" horiz-adv-x="429" 
d="M483 702l-439 -759h-75l439 759h75z" />
    <glyph glyph-name="zero" unicode="0" horiz-adv-x="655" 
d="M411 665q99 0 152.5 -72.5t53.5 -182.5q0 -104 -44 -200t-127.5 -159t-184.5 -63q-98 0 -149 70t-51 179q0 110 44.5 208t126 159t179.5 61zM277 54q83 0 143.5 55t88 134.5t27.5 168.5q0 86 -36 136.5t-106 50.5q-66 0 -116.5 -33t-78.5 -87.5t-41.5 -115t-13.5 -125.5
q0 -89 34 -136.5t99 -47.5z" />
    <glyph glyph-name="one" unicode="1" horiz-adv-x="314" 
d="M297 660l-140 -660h-75l112 526l-106 -46l-7 70z" />
    <glyph glyph-name="two" unicode="2" horiz-adv-x="507" 
d="M133 550l-4 66q100 49 205 49q76 0 120 -36.5t44 -97.5q0 -45 -24.5 -92t-72 -95.5t-92.5 -87.5t-113 -94.5t-107 -91.5h320l-15 -70h-405l15 70q48 48 131.5 119t138 117.5t97.5 106t43 110.5q0 76 -96 76q-44 0 -98 -14t-87 -35z" />
    <glyph glyph-name="three" unicode="3" horiz-adv-x="535" 
d="M153 550l-4 66q38 21 90.5 35t92.5 14q77 0 121 -35.5t44 -100.5q0 -56 -36 -99.5t-92 -70.5q96 -35 96 -132t-79 -168t-215 -71q-115 0 -182 62l34 67q65 -63 159 -63q95 0 148 46.5t53 126.5q0 98 -146 98h-27l13 57h31q72 0 116 40t44 103q0 74 -90 74
q-44 0 -92.5 -14t-78.5 -35z" />
    <glyph glyph-name="four" unicode="4" horiz-adv-x="508" 
d="M461 280l-15 -70h-69l-45 -210h-75l45 210h-284l15 70l360 380h80l-81 -380h69zM118 280h199l57 271z" />
    <glyph glyph-name="five" unicode="5" horiz-adv-x="542" 
d="M114 302l-26 15l111 348h339l-15 -70h-276l-71 -213q75 16 131 16q79 0 126 -40t47 -112q0 -103 -80.5 -180.5t-216.5 -77.5q-115 0 -182 62l36 70q69 -66 161 -66q90 0 143.5 47.5t53.5 129.5q0 96 -134 96q-78 0 -147 -25z" />
    <glyph glyph-name="six" unicode="6" horiz-adv-x="559" 
d="M152 328q59 73 182 73q88 0 125.5 -48t37.5 -111q0 -43 -16.5 -86.5t-47.5 -81.5t-83 -62t-116 -24q-175 0 -175 207q0 48 8.5 103.5t32.5 122.5t60.5 119.5t98.5 88t141 35.5q41 0 83.5 -11t64.5 -37l-31 -66q-49 49 -130 49q-68 0 -121.5 -43.5t-80.5 -103t-33 -124.5z
M418 236q0 46 -24.5 75t-77.5 29q-87 0 -134 -52t-47 -128q0 -51 29 -81t83 -30q75 0 123 52t48 135z" />
    <glyph glyph-name="seven" unicode="7" horiz-adv-x="458" 
d="M107 0h-87q6 33 7 39q25 116 145.5 275t255.5 281h-322l15 70h405l-15 -70q-124 -101 -248 -273t-148 -282z" />
    <glyph glyph-name="eight" unicode="8" horiz-adv-x="560" 
d="M400 366l-1 -4q43 -10 66 -45.5t23 -87.5q0 -101 -70.5 -171t-199.5 -70q-94 0 -138.5 44.5t-44.5 113.5q0 78 44.5 136t119.5 79l1 4q-28 11 -45.5 40t-17.5 69q0 83 62 137t164 54q75 0 117 -34.5t42 -93.5t-35.5 -105t-86.5 -66zM403 215q0 49 -27.5 81t-84.5 32
q-85 0 -130 -55t-45 -123q0 -48 29.5 -74.5t85.5 -26.5q81 0 126.5 44.5t45.5 121.5zM438 525q0 77 -89 77q-68 0 -100 -36t-32 -91q0 -39 22 -63t64 -24q61 0 98 40t37 97z" />
    <glyph glyph-name="nine" unicode="9" horiz-adv-x="560" 
d="M430 324l-3 1q-55 -74 -179 -74q-88 0 -125.5 48t-37.5 111q0 43 16.5 86.5t47.5 81.5t82.5 62t115.5 24q176 0 176 -207q0 -48 -8.5 -103.5t-32.5 -122.5t-60.5 -119.5t-98.5 -88t-141 -35.5q-41 0 -83.5 11t-64.5 37l31 66q49 -49 130 -49q49 0 90 21t68 57.5t44.5 77
t27.5 86.5q4 21 5 29zM335 603q-74 0 -122.5 -58.5t-48.5 -136.5q0 -96 102 -96q87 0 133.5 52t46.5 128q0 51 -28.5 81t-82.5 30z" />
    <glyph glyph-name="colon" unicode=":" horiz-adv-x="244" 
d="M23 27q0 21 18 38.5t40 17.5q16 0 27 -12t11 -29q0 -20 -18.5 -36.5t-39.5 -16.5q-17 0 -27.5 11t-10.5 27zM103 400q0 21 17.5 38t39.5 17q16 0 27.5 -11.5t11.5 -28.5q0 -21 -18.5 -37.5t-40.5 -16.5q-16 0 -26.5 11t-10.5 28z" />
    <glyph glyph-name="semicolon" unicode=";" horiz-adv-x="253" 
d="M109 400q0 21 17.5 38t39.5 17q16 0 27.5 -11.5t11.5 -28.5q0 -21 -18.5 -37.5t-40.5 -16.5q-16 0 -26.5 11t-10.5 28zM15 -97l-16 19l55 73h-25l19 90h79l-23 -105z" />
    <glyph glyph-name="less" unicode="&#x3c;" horiz-adv-x="411" 
d="M140 243l-1 -5l170 -133l-32 -64l-244 197l1 5l326 194l5 -63z" />
    <glyph glyph-name="equal" unicode="=" horiz-adv-x="491" 
d="M58 189h338l-11 -52h-338zM90 341h338l-11 -52h-338z" />
    <glyph glyph-name="greater" unicode="&#x3e;" horiz-adv-x="409" 
d="M256 238l1 5l-169 131l32 63l243 -194l-1 -5l-328 -197l-4 64z" />
    <glyph glyph-name="question" unicode="?" horiz-adv-x="417" 
d="M87 28q0 22 17.5 38.5t39.5 16.5q17 0 28 -11.5t11 -28.5q0 -20 -19 -37t-40 -17q-16 0 -26.5 11.5t-10.5 27.5zM122 571l-4 66q32 21 75.5 35t80.5 14q68 0 106 -35.5t38 -94.5q0 -40 -19.5 -77.5t-49 -71t-61 -68.5t-60 -84t-40.5 -104h-64q13 60 40.5 111t57.5 84.5
t58 63.5t46 63.5t18 70.5q0 34 -21.5 55.5t-63.5 21.5q-32 0 -71.5 -14.5t-65.5 -35.5z" />
    <glyph glyph-name="at" unicode="@" horiz-adv-x="726" 
d="M408 229l50 121q-4 6 -24 6q-69 0 -117 -71t-48 -130q0 -39 22 -39q25 0 63 37.5t54 75.5zM526 27l-10 -50q-33 -25 -103 -51.5t-142 -26.5q-105 0 -172.5 63t-67.5 166q0 48 18.5 104t56 112t88.5 101.5t122.5 74t151.5 28.5q112 0 168.5 -59.5t56.5 -144.5
q0 -103 -77.5 -186.5t-180.5 -83.5q-61 0 -61 42q0 11 4 31q-24 -34 -54 -54t-56 -20t-44.5 23.5t-18.5 65.5q0 64 38.5 117.5t92.5 81.5t106 28q67 0 91 -33q-52 -125 -73 -175q-1 -3 -2 -4v-1q-12 -28 -12 -42q0 -19 24 -19q61 0 111 71.5t50 150.5q0 69 -43 116.5
t-131 47.5q-78 0 -148 -35t-116 -90t-72.5 -120.5t-26.5 -127.5q0 -90 55 -135.5t142 -45.5q73 0 135.5 25.5t99.5 54.5z" />
    <glyph glyph-name="A" unicode="A" horiz-adv-x="643" 
d="M445 660l150 -660h-85l-50 222h-295l-135 -222h-80l404 660h91zM381 576l-174 -284h237z" />
    <glyph glyph-name="B" unicode="B" horiz-adv-x="561" 
d="M42 0l140 660q75 5 155 5q77 0 121.5 -35.5t44.5 -100.5q0 -108 -101 -164q97 -37 97 -137q0 -98 -79.5 -169t-215.5 -71q-78 0 -162 12zM271 325q-32 0 -86 -2l-56 -266q37 -3 86 -3q95 0 148 46.5t53 126.5q0 98 -145 98zM329 599q-32 0 -86 -2l-45 -214q19 -1 61 -1
q73 0 117 39.5t44 103.5q0 74 -91 74z" />
    <glyph glyph-name="C" unicode="C" horiz-adv-x="643" 
d="M665 622l-37 -72q-63 49 -175 49q-88 0 -151.5 -30.5t-96.5 -82.5t-47.5 -109.5t-14.5 -124.5q0 -97 48.5 -147.5t143.5 -50.5q125 0 214 62l6 -67q-114 -61 -237 -61q-128 0 -193 73t-65 187q0 81 28.5 156t80.5 133.5t131 93t173 34.5q114 0 192 -43z" />
    <glyph glyph-name="D" unicode="D" horiz-adv-x="708" 
d="M42 0l140 660q163 5 219 5q143 0 213 -75q56 -60 56 -185q0 -108 -45 -201.5t-138.5 -154.5t-218.5 -61q-108 0 -226 12zM279 54q151 0 230 96.5t79 257.5q0 191 -195 191q-85 0 -150 -3l-113 -536q62 -6 149 -6z" />
    <glyph glyph-name="E" unicode="E" horiz-adv-x="522" 
d="M439 70l-15 -70h-382l140 660h362l-15 -70h-287l-43 -205h220l-15 -70h-220l-52 -245h307z" />
    <glyph glyph-name="F" unicode="F" horiz-adv-x="484" 
d="M408 385l-15 -70h-209l-67 -315h-75l140 660h357l-15 -70h-282l-43 -205h209z" />
    <glyph glyph-name="G" unicode="G" horiz-adv-x="674" 
d="M609 272l-46 -217q-112 -67 -245 -67q-128 0 -193 73t-65 187q0 81 28.5 156t80.5 133.5t131 93t173 34.5q116 0 202 -43l-37 -72q-63 49 -185 49q-88 0 -151.5 -30.5t-96.5 -82.5t-47.5 -109.5t-14.5 -124.5q0 -97 48.5 -147.5t143.5 -50.5q83 0 160 32l39 186h75z" />
    <glyph glyph-name="H" unicode="H" horiz-adv-x="705" 
d="M257 660l-61 -285h356l61 285h75l-140 -660h-75l64 305h-356l-64 -305h-75l140 660h75z" />
    <glyph glyph-name="I" unicode="I" horiz-adv-x="274" 
d="M257 660l-140 -660h-75l140 660h75z" />
    <glyph glyph-name="J" unicode="J" horiz-adv-x="273" 
d="M257 660l-119 -559q-24 -112 -84 -184.5t-145 -72.5l-2 55q37 0 65 17.5t45.5 51t27 63t18.5 71.5l119 558h75z" />
    <glyph glyph-name="K" unicode="K" horiz-adv-x="596" 
d="M257 660l-66 -312q55 33 120 85q128 104 239 227h86q-118 -134 -330 -307l231 -353h-93l-203 306l-69 -45l-55 -261h-75l140 660h75z" />
    <glyph glyph-name="L" unicode="L" horiz-adv-x="481" 
d="M427 70l-15 -70h-370l140 660h75l-125 -590h295z" />
    <glyph glyph-name="M" unicode="M" horiz-adv-x="844" 
d="M283 660l104 -566l344 566h96l-140 -660h-75l106 499l-308 -499h-90l-97 500l-106 -500h-75l140 660h101z" />
    <glyph glyph-name="N" unicode="N" horiz-adv-x="705" 
d="M457 0l-226 540l-114 -540h-75l140 660h91l225 -541l115 541h75l-140 -660h-91z" />
    <glyph glyph-name="O" unicode="O" horiz-adv-x="762" 
d="M138 246q0 -90 52.5 -141t147.5 -51q75 0 136 30.5t98 81t56.5 112t19.5 127.5q0 89 -52 141.5t-157 52.5q-77 0 -137 -30.5t-94.5 -82t-52 -112.5t-17.5 -128zM465 665q126 0 193 -75.5t67 -191.5q0 -75 -29 -148t-80 -131.5t-130 -94.5t-172 -36q-126 0 -190 73.5
t-64 187.5q0 81 29.5 156.5t81.5 133t128.5 92t165.5 34.5z" />
    <glyph glyph-name="P" unicode="P" horiz-adv-x="532" 
d="M42 0l140 660h4q110 5 146 5q94 0 147.5 -44t53.5 -124q0 -103 -74 -176t-204 -73q-47 0 -85 3l-53 -251h-75zM324 599q-31 0 -81 -2l-59 -280q36 -3 82 -3q90 0 137.5 48.5t47.5 132.5q0 104 -127 104z" />
    <glyph glyph-name="Q" unicode="Q" horiz-adv-x="764" 
d="M466 665q126 0 193 -75.5t67 -191.5q0 -73 -27.5 -144.5t-76 -129t-124 -94.5t-163.5 -41q39 -5 123.5 -40.5t138.5 -35.5q39 0 89 19l-33 -64q-33 -16 -77 -16q-60 0 -150 44.5t-132 44.5q-69 0 -132 -41l-4 47q60 37 129 42q-112 9 -169 81t-57 179q0 81 29.5 156.5
t81.5 133t128.5 92t165.5 34.5zM138 246q0 -90 52.5 -141t147.5 -51q75 0 136 30.5t98 81t56.5 112t19.5 127.5q0 89 -52 141.5t-157 52.5q-77 0 -137 -30.5t-94.5 -82t-52 -112.5t-17.5 -128z" />
    <glyph glyph-name="R" unicode="R" horiz-adv-x="590" 
d="M42 0l140 660h4q110 5 146 5q96 0 150.5 -40.5t54.5 -114.5q0 -76 -50 -137t-141 -82l191 -291h-93l-187 282q-44 0 -80 3l-60 -285h-75zM324 599q-31 0 -81 -2l-52 -247q24 -2 82 -2q87 0 134 43t47 117q0 91 -130 91z" />
    <glyph glyph-name="S" unicode="S" horiz-adv-x="556" 
d="M187 484q0 -36 30.5 -56t112.5 -49q36 -13 60.5 -25t50 -31t38.5 -47t13 -64q0 -77 -42.5 -129t-104 -73.5t-136.5 -21.5q-118 0 -206 55l37 73q39 -31 76.5 -46.5t100.5 -15.5q100 0 146.5 35.5t46.5 92.5q0 27 -12 47.5t-37 36t-44 24t-52 20.5q-77 27 -115.5 62
t-38.5 93q0 100 71 150t182 50q107 0 181 -38l-37 -77q-46 49 -162 49q-75 0 -117 -29t-42 -86z" />
    <glyph glyph-name="T" unicode="T" horiz-adv-x="530" 
d="M596 660l-15 -70h-211l-125 -590h-75l125 590h-211l15 70h497z" />
    <glyph glyph-name="U" unicode="U" horiz-adv-x="689" 
d="M250 660l-86 -404q-9 -40 -9 -72q0 -130 145 -130q180 0 223 202l86 404h70l-93 -438q-22 -103 -100 -168t-200 -65q-212 0 -212 166q0 30 8 67l93 438h75z" />
    <glyph glyph-name="V" unicode="V" horiz-adv-x="645" 
d="M221 0l-148 660h85l129 -576l351 576h80l-402 -660h-95z" />
    <glyph glyph-name="W" unicode="W" horiz-adv-x="1082" 
d="M680 0l-84 546l-302 -546h-95l-120 660h85l102 -565l313 565h85l86 -563l320 563h80l-375 -660h-95z" />
    <glyph glyph-name="X" unicode="X" horiz-adv-x="646" 
d="M484 0l-160 285l-280 -285h-86l334 341l-179 319h89l150 -267l262 267h86l-317 -323l190 -337h-89z" />
    <glyph glyph-name="Y" unicode="Y" horiz-adv-x="565" 
d="M241 267l-173 393h89l142 -317l269 317h87l-338 -389l-57 -271h-75z" />
    <glyph glyph-name="Z" unicode="Z" horiz-adv-x="552" 
d="M468 70l-15 -70h-468l15 70l478 520h-353l15 70h438l-15 -70l-478 -520h383z" />
    <glyph glyph-name="bracketleft" unicode="[" horiz-adv-x="285" 
d="M181 -53l-9 -42h-160l179 844h160l-9 -42h-95l-161 -760h95z" />
    <glyph glyph-name="backslash" unicode="\" horiz-adv-x="422" 
d="M243 -57l-117 759h73l117 -759h-73z" />
    <glyph glyph-name="bracketright" unicode="]" horiz-adv-x="285" 
d="M127 707l9 42h160l-179 -844h-160l9 42h95l161 760h-95z" />
    <glyph glyph-name="asciicircum" unicode="^" horiz-adv-x="348" 
d="M314 673h8l88 -99l2 -7l-10 -19l-8 -3l-91 61l-117 -61l-6 3l-2 19l4 7z" />
    <glyph glyph-name="underscore" unicode="_" horiz-adv-x="481" 
d="M-26 0h433l-11 -52h-433z" />
    <glyph glyph-name="grave" unicode="`" horiz-adv-x="219" 
d="M330 552l-8 -3l-185 77q-1 3 -1 11q0 18 11.5 30t31.5 13l160 -101l1 -7z" />
    <glyph glyph-name="a" unicode="a" 
d="M482 460h55l-97 -460h-55l10 82h-4q-36 -40 -88 -67t-112 -27q-78 0 -118.5 51.5t-40.5 131.5q0 120 75.5 212t197.5 92q65 0 103 -28.5t42 -72.5zM211 47q49 0 101.5 27t89.5 74l31 147q-6 56 -41.5 88.5t-88.5 32.5q-84 0 -140.5 -69.5t-56.5 -169.5q0 -56 25.5 -93
t79.5 -37z" />
    <glyph glyph-name="b" unicode="b" 
d="M263 -12q-60 0 -101 27t-59 67h-4l-25 -82h-55l157 740h70l-78 -366q23 44 74 72.5t114 28.5q83 0 125.5 -53t42.5 -136q0 -116 -72 -207t-189 -91zM268 47q61 0 104 39t60 88.5t17 100.5q0 64 -30.5 102.5t-85.5 38.5q-53 0 -102 -32.5t-79 -88.5l-32 -147
q18 -47 58.5 -74t89.5 -27z" />
    <glyph glyph-name="c" unicode="c" horiz-adv-x="500" 
d="M490 435l-30 -59q-19 18 -60 31t-82 13q-99 0 -153 -68t-54 -157q0 -66 34 -109t100 -43q40 0 86 17t80 43v-65q-87 -50 -191 -50q-91 0 -138.5 54t-47.5 138q0 55 18.5 107t54 94.5t93.5 68t131 25.5q106 0 159 -40z" />
    <glyph glyph-name="d" unicode="d" horiz-adv-x="576" 
d="M192 -12q-78 0 -118.5 51.5t-40.5 131.5q0 120 75.5 212t197.5 92q65 0 103 -28.5t42 -72.5l77 366h70l-157 -740h-55l10 82h-4q-36 -40 -88 -67t-112 -27zM212 47q49 0 101.5 27t89.5 74l31 147q-6 56 -41.5 88.5t-88.5 32.5q-84 0 -140.5 -69.5t-56.5 -169.5
q0 -56 25.5 -93t79.5 -37z" />
    <glyph glyph-name="e" unicode="e" horiz-adv-x="516" 
d="M328 475q74 0 113.5 -34.5t39.5 -97.5q0 -27 -8.5 -56t-18.5 -42h-340q-6 -29 -6 -57q0 -64 32.5 -105.5t95.5 -41.5q79 0 175 58v-57q-98 -54 -194 -54q-89 0 -137 54.5t-48 137.5q0 118 83.5 206.5t212.5 88.5zM313 419q-65 0 -111.5 -33.5t-70.5 -87.5h277q7 21 7 36
q0 40 -29 62.5t-73 22.5z" />
    <glyph glyph-name="f" unicode="f" horiz-adv-x="297" 
d="M-11 -260l143 673h-77l8 37l79 9q36 173 91 237q42 49 115 49q54 0 84 -17l-30 -59q-2 0 -36 12t-54 12q-29 0 -47 -35.5t-39 -131.5l-14 -66h108l-10 -47h-108l-143 -673h-70z" />
    <glyph glyph-name="g" unicode="g" 
d="M213 47q48 0 100 27t89 74l31 147q-6 57 -41.5 89t-89.5 32q-83 0 -139.5 -69.5t-56.5 -166.5q0 -59 25.5 -96t81.5 -37zM-14 -198l12 54q43 -23 98.5 -38t100.5 -15q74 0 117 45.5t63 143.5l18 90h-4q-35 -40 -88 -67t-111 -27q-80 0 -120 51.5t-40 132.5
q0 119 75.5 211t196.5 92q66 0 104 -28.5t42 -72.5l32 86h55l-99 -466q-29 -135 -87 -190.5t-165 -55.5t-200 54z" />
    <glyph glyph-name="h" unicode="h" horiz-adv-x="543" 
d="M412 0h-70l65 304q4 19 4 38q0 74 -77 74q-52 0 -102.5 -32.5t-79.5 -88.5l-63 -295h-70l157 740h70l-78 -366q23 44 74 72.5t115 28.5q128 0 128 -111q0 -22 -6 -51z" />
    <glyph glyph-name="i" unicode="i" horiz-adv-x="224" 
d="M187 460l-98 -460h-70l98 460h70zM136 619q0 23 19.5 42t43.5 19q18 0 29.5 -13t11.5 -31q0 -23 -20 -40.5t-43 -17.5q-18 0 -29.5 12t-11.5 29z" />
    <glyph glyph-name="j" unicode="j" horiz-adv-x="225" 
d="M187 460l-98 -463q-23 -109 -78.5 -182t-128.5 -73q-16 0 -21 3l-4 58q6 -3 21 -3q32 0 57 18t41.5 51t25.5 61.5t17 67.5l98 462h70zM137 619q0 23 19 42t43 19q18 0 30 -13t12 -31q0 -23 -20 -40.5t-43 -17.5q-18 0 -29.5 12t-11.5 29z" />
    <glyph glyph-name="k" unicode="k" horiz-adv-x="471" 
d="M469 460l-199 -162l133 -298h-80l-112 250l-84 -69l-38 -181h-70l157 740h70l-101 -475l244 195h80z" />
    <glyph glyph-name="l" unicode="l" horiz-adv-x="236" 
d="M252 740l-157 -740h-70l157 740h70z" />
    <glyph glyph-name="m" unicode="m" horiz-adv-x="858" 
d="M408 0h-70l65 304q4 19 4 37q0 75 -79 75q-51 0 -98.5 -32t-77.5 -89l-63 -295h-70l98 460h55l-11 -86h4q23 44 72 72.5t112 28.5q60 0 94.5 -27t35.5 -74q74 101 192 101q57 0 93 -27t36 -86q0 -22 -6 -49l-67 -313h-70l65 304q4 19 4 37q0 75 -79 75q-51 0 -98.5 -32
t-77.5 -89z" />
    <glyph glyph-name="n" unicode="n" horiz-adv-x="543" 
d="M412 0h-70l65 304q4 19 4 38q0 74 -77 74q-52 0 -102.5 -32.5t-79.5 -88.5l-63 -295h-70l98 460h55l-11 -86h4q23 44 75 72.5t117 28.5q128 0 128 -111q0 -22 -6 -51z" />
    <glyph glyph-name="o" unicode="o" horiz-adv-x="564" 
d="M324 475q94 0 141 -54t47 -138q0 -120 -76.5 -207.5t-211.5 -87.5q-95 0 -143 53.5t-48 137.5q0 119 78.5 207.5t212.5 88.5zM235 41q94 0 147.5 70t53.5 162q0 64 -31.5 105t-95.5 41t-111 -35t-68.5 -86.5t-21.5 -110.5q0 -63 31.5 -104.5t95.5 -41.5z" />
    <glyph glyph-name="p" unicode="p" horiz-adv-x="576" 
d="M367 475q78 0 118.5 -51.5t40.5 -131.5q0 -120 -75.5 -212t-197.5 -92q-65 0 -103 28.5t-42 72.5l-74 -349h-70l153 720h55l-10 -86h4q36 42 89 71.5t112 29.5zM337 416q-102 0 -181 -101l-31 -147q6 -55 45.5 -88t93.5 -33q83 0 134.5 69t51.5 162q0 60 -28 99t-85 39z
" />
    <glyph glyph-name="q" unicode="q" horiz-adv-x="576" 
d="M291 475q61 0 101.5 -29t60.5 -72h4l26 86h55l-153 -720h-70l74 349q-23 -44 -72.5 -72.5t-114.5 -28.5q-84 0 -126.5 53t-42.5 135q0 116 72 207.5t186 91.5zM300 416q-88 0 -140.5 -73t-52.5 -162q0 -60 27.5 -97t80.5 -37q54 0 108 33t83 88l31 147q-17 49 -53 75
t-84 26z" />
    <glyph glyph-name="r" unicode="r" horiz-adv-x="356" 
d="M384 452l-35 -66q-30 20 -59 20q-38 0 -78.5 -40t-65.5 -97l-57 -269h-70l98 460h55l-14 -101h4q26 51 66.5 83.5t90.5 32.5q19 0 38.5 -6.5t26.5 -16.5z" />
    <glyph glyph-name="s" unicode="s" horiz-adv-x="442" 
d="M245 419q-54 0 -80.5 -21t-26.5 -56q0 -47 62 -61l68 -16q106 -25 106 -107q0 -70 -61.5 -120t-155.5 -50q-97 0 -159 50l32 65q27 -31 67 -47t78 -16q53 0 87.5 28.5t34.5 67.5q0 48 -56 63l-91 24q-87 23 -87 96q0 68 56.5 112t142.5 44q98 0 151 -41l-32 -60
q-18 18 -55 31.5t-81 13.5z" />
    <glyph glyph-name="t" unicode="t" horiz-adv-x="310" 
d="M60 92l68 321h-77l8 37l81 10l45 139h53l-30 -139h108l-10 -47h-108l-68 -319q-3 -15 -3 -26q0 -15 7 -20.5t24 -5.5q41 0 78 24l3 -53q-58 -24 -110 -24q-75 0 -75 60q0 13 6 43z" />
    <glyph glyph-name="u" unicode="u" horiz-adv-x="542" 
d="M113 460h70l-65 -304q-5 -25 -5 -38q0 -71 77 -71q52 0 102.5 31t80.5 87l62 295h70l-98 -460h-55l11 86h-4q-22 -43 -74 -70.5t-117 -27.5q-128 0 -128 108q0 22 6 51z" />
    <glyph glyph-name="v" unicode="v" horiz-adv-x="521" 
d="M550 460l-307 -460h-89l-111 460h76l95 -394l263 394h73z" />
    <glyph glyph-name="w" unicode="w" horiz-adv-x="823" 
d="M847 460l-277 -460h-95l-48 360l-209 -360h-95l-71 460h74l60 -392l228 392h74l52 -392l236 392h71z" />
    <glyph glyph-name="x" unicode="x" horiz-adv-x="514" 
d="M152 460l109 -175l182 175h85l-237 -223l149 -237h-85l-117 187l-194 -187h-85l249 235l-141 225h85z" />
    <glyph glyph-name="y" unicode="y" horiz-adv-x="518" 
d="M548 460l-310 -464q-27 -41 -41 -61t-49 -63t-62.5 -66t-66.5 -42.5t-77 -19.5q-12 0 -19 3v66q12 -3 20 -3q64 0 118.5 52t112.5 153l-135 445h83l101 -383l246 383h79z" />
    <glyph glyph-name="z" unicode="z" horiz-adv-x="415" 
d="M-17 0l13 60l315 341h-233l13 59h314l-13 -58l-317 -343h255l-13 -59h-334z" />
    <glyph glyph-name="braceleft" unicode="{" horiz-adv-x="283" 
d="M342 760l-2 -21q-42 -4 -60 -30t-27 -72l-28 -143q-28 -145 -130 -167q67 -16 67 -110q0 -39 -23.5 -128t-23.5 -112q0 -57 50 -62l-7 -21q-61 0 -86 24.5t-25 69.5q0 32 25 125.5t25 123.5q0 72 -54 75l6 30q21 1 37.5 11t26 22t18 33t11.5 33t7 32q5 25 11.5 59
t10 55.5t10.5 48t14.5 43t20.5 33.5t29.5 26.5t41 15.5t55.5 6z" />
    <glyph glyph-name="bar" unicode="|" horiz-adv-x="242" 
d="M257 768l-187 -882h-62l187 882h62z" />
    <glyph glyph-name="braceright" unicode="}" horiz-adv-x="282" 
d="M141 739l6 21q61 0 86 -24.5t25 -69.5q0 -32 -24.5 -125t-24.5 -123q0 -73 53 -76l-6 -30q-25 -1 -43.5 -13t-29.5 -34.5t-16 -39t-10 -41.5t-12.5 -66.5t-11.5 -63t-13 -52t-20.5 -46.5t-29.5 -32.5t-45 -23t-62 -6.5l2 21q42 4 59.5 29.5t27.5 72.5q3 17 10 55
t11.5 58.5t13 53t18.5 51.5t24.5 40.5t35 33.5t45.5 18q-67 16 -67 110q0 39 23.5 128t23.5 112q0 57 -49 62z" />
    <glyph glyph-name="asciitilde" unicode="~" horiz-adv-x="495" 
d="M424 288q-2 -7 -13.5 -24t-37 -35t-53.5 -18q-12 0 -89 4.5t-100 4.5q-35 0 -60 -25l-12 7q4 20 36.5 48.5t70.5 28.5q14 0 79.5 -4.5t97.5 -4.5q47 0 71 26z" />
    <glyph glyph-name="uni00A0" unicode="&#xa0;" horiz-adv-x="245" 
 />
    <glyph glyph-name="exclamdown" unicode="&#xa1;" horiz-adv-x="240" 
d="M107 421q0 21 17.5 37.5t39.5 16.5q16 0 27 -11t11 -28q0 -21 -18.5 -38t-39.5 -17q-17 0 -27 12t-10 28zM105 314h47l-87 -532h-97z" />
    <glyph glyph-name="cent" unicode="&#xa2;" horiz-adv-x="508" 
d="M385 577l-29 -134q86 -7 128 -38l-30 -59q-37 31 -110 41l-73 -343q80 12 140 59v-65q-66 -38 -151 -48l-27 -127h-60l26 126q-82 6 -124.5 56t-42.5 126q0 67 27.5 125t89.5 100t148 48l28 133h60zM109 187q0 -54 26.5 -93t76.5 -48l73 342q-85 -9 -130.5 -68
t-45.5 -133z" />
    <glyph glyph-name="sterling" unicode="&#xa3;" horiz-adv-x="566" 
d="M133 54l1 -3q38 -2 119.5 -22t127.5 -20q43 0 93 19l-35 -73q-44 -20 -85 -20q-48 0 -133.5 33t-137.5 33q-54 0 -99 -32l-4 47q156 62 191 234l3 15h-98l11 52h94q2 20 4.5 57.5t5.5 64.5t7 47q13 62 52 104t83.5 58.5t92.5 16.5q91 0 146 -49l-32 -66q-16 21 -51.5 35
t-74.5 14q-103 0 -126 -111q-5 -24 -10.5 -83t-9.5 -88h139l-11 -52h-137q-30 -121 -126 -211z" />
    <glyph glyph-name="currency" unicode="&#xa4;" horiz-adv-x="580" 
d="M6 27l95 80q-23 38 -23 89q0 38 15 73.5t61 81.5l-65 80l36 30l63 -79q70 44 134 44q68 0 113 -44l98 78l24 -29l-96 -80q22 -41 22 -90q0 -77 -73 -154l63 -80l-37 -30l-65 79q-68 -45 -131 -45q-60 0 -115 45l-96 -79zM313 378q-70 0 -126.5 -52t-56.5 -123
q0 -53 33.5 -88t86.5 -35q71 0 126.5 52.5t55.5 122.5q0 53 -33 88t-86 35z" />
    <glyph glyph-name="yen" unicode="&#xa5;" horiz-adv-x="654" 
d="M111 255h172l3 12l-18 41h-146l11 52h112l-133 300h89l142 -317l269 317h87l-261 -300h114l-11 -52h-148l-32 -37l-4 -16h173l-11 -52h-173l-42 -203h-75l43 203h-172z" />
    <glyph glyph-name="brokenbar" unicode="&#xa6;" horiz-adv-x="244" 
d="M91 274h62l-82 -388h-62zM176 380h-62l82 388h62z" />
    <glyph glyph-name="section" unicode="&#xa7;" horiz-adv-x="443" 
d="M142 0q37 0 66 25.5t29 63.5q0 26 -17.5 51.5t-43 47t-51 44.5t-43 53t-17.5 64q0 43 27.5 85.5t68.5 67.5q-4 13 -4 33q0 80 58.5 127t123.5 47q62 0 107 -38l-39 -67q-30 42 -85 42q-37 0 -66 -23.5t-29 -63.5q0 -27 17.5 -52.5t43 -47t51 -44.5t43 -53.5t17.5 -64.5
q0 -43 -27.5 -86t-68.5 -68q4 -20 4 -32q0 -80 -58.5 -127t-123.5 -47q-62 0 -107 38l39 67q30 -42 85 -42zM330 264q0 26 -18 52t-41.5 44.5t-51.5 47t-43 54.5q-20 -14 -31 -37t-11 -43q0 -33 28 -64t68 -66.5t58 -67.5q19 14 30.5 37t11.5 43z" />
    <glyph glyph-name="dieresis" unicode="&#xa8;" horiz-adv-x="220" 
d="M133 623q0 20 16 36.5t36 16.5q14 0 23.5 -11t9.5 -27q0 -20 -16.5 -35.5t-35.5 -15.5q-15 0 -24 10t-9 26zM270 623q0 20 16 36.5t36 16.5q14 0 23.5 -11t9.5 -27q0 -20 -16.5 -35.5t-35.5 -15.5q-15 0 -24 10t-9 26z" />
    <glyph glyph-name="copyright" unicode="&#xa9;" horiz-adv-x="727" 
d="M444 654q109 0 178 -71.5t69 -177.5q0 -142 -115.5 -247.5t-263.5 -105.5q-105 0 -173 72.5t-68 178.5q0 139 114.5 245t258.5 106zM436 613q-124 0 -221 -91.5t-97 -214.5q0 -92 56.5 -153t146.5 -61q129 0 226 91t97 216q0 91 -58 152t-150 61zM528 493l-23 -51
q-13 12 -41.5 21t-57.5 9q-66 0 -98 -42.5t-32 -99.5q0 -41 21 -67t63 -26q63 0 117 42l-3 -56q-62 -35 -134 -35q-63 0 -95 36t-32 93q0 84 51 144t152 60q76 0 112 -28z" />
    <glyph glyph-name="ordfeminine" unicode="&#xaa;" horiz-adv-x="371" 
d="M316 369h-40l5 49h-4q-20 -23 -54.5 -40t-67.5 -17q-31 0 -47.5 17.5t-16.5 45.5q0 38 19.5 64t51.5 37.5t59.5 16t56.5 4.5h27l1 7q1 5 1 15q0 52 -64 52q-44 0 -87 -24l-2 36q49 26 101 26q45 0 74.5 -18.5t29.5 -57.5q0 -10 -3 -24zM177 402q25 0 56.5 17t53.5 45
l10 48h-5q-33 0 -55.5 -2.5t-47 -9.5t-37 -24t-12.5 -43q0 -31 37 -31z" />
    <glyph glyph-name="guillemotleft" unicode="&#xab;" horiz-adv-x="481" 
d="M113 243l-1 -5l106 -177h-80l-95 177l1 5l172 177h79zM275 243l-1 -5l106 -177h-80l-95 177l1 5l172 177h79z" />
    <glyph glyph-name="logicalnot" unicode="&#xac;" horiz-adv-x="634" 
d="M90 341h480l-48 -224h-53l37 172h-427z" />
    <glyph glyph-name="uni00AD" unicode="&#xad;" horiz-adv-x="488" 
d="M74 265h336l-13 -52h-336z" />
    <glyph glyph-name="registered" unicode="&#xae;" horiz-adv-x="727" 
d="M444 654q109 0 178 -71.5t69 -177.5q0 -142 -115.5 -247.5t-263.5 -105.5q-105 0 -173 72.5t-68 178.5q0 139 114.5 245t258.5 106zM436 613q-124 0 -221 -91.5t-97 -214.5q0 -92 56.5 -153t146.5 -61q129 0 226 91t97 216q0 91 -58 152t-150 61zM248 201l70 329
q46 2 86 2q107 0 107 -72q0 -40 -28 -70t-73 -41l69 -148h-55l-68 145h-29l-31 -145h-48zM397 494q-7 0 -20 -0.5t-19 -0.5l-23 -111q11 -1 39 -1q39 0 62.5 19.5t23.5 52.5q0 41 -63 41z" />
    <glyph glyph-name="degree" unicode="&#xb0;" horiz-adv-x="356" 
d="M257 658q50 0 75.5 -26.5t25.5 -68.5q0 -55 -40 -94.5t-110 -39.5q-50 0 -75 26t-25 65q0 56 42 97t107 41zM216 467q44 0 67.5 25.5t23.5 64.5q0 27 -15 43.5t-45 16.5q-45 0 -68 -26.5t-23 -63.5q0 -27 15 -43.5t45 -16.5z" />
    <glyph glyph-name="plusminus" unicode="&#xb1;" horiz-adv-x="482" 
d="M308 455l-22 -104h134l-12 -53h-134l-24 -115h-52l24 115h-133l12 53h133l22 104h52zM52 123h319l-11 -53h-319z" />
    <glyph glyph-name="twosuperior" unicode="&#xb2;" horiz-adv-x="373" 
d="M153 572l-2 44q65 49 119 49q44 0 67.5 -21t23.5 -57q0 -28 -11.5 -54t-37 -51.5t-47 -43.5t-63 -48.5t-63.5 -48.5h175l-9 -42h-236l9 42q25 25 70.5 60t77.5 59t57 56.5t25 62.5q0 46 -48 46q-54 0 -107 -53z" />
    <glyph glyph-name="threesuperior" unicode="&#xb3;" horiz-adv-x="355" 
d="M157 596l-3 39q55 30 94 30q95 0 95 -74q0 -56 -75 -90q59 -19 59 -73q0 -53 -44 -93.5t-124 -40.5q-32 0 -52 9t-41 29l21 40q14 -14 22 -20.5t22.5 -12t33.5 -5.5q58 0 85.5 26.5t27.5 70.5q0 50 -82 50h-12l7 34h15q43 0 65 20.5t22 54.5q0 35 -50 35q-43 0 -86 -29z
" />
    <glyph glyph-name="acute" unicode="&#xb4;" horiz-adv-x="219" 
d="M130 549l-6 3l-2 20l4 7l202 101q29 -2 29 -28q0 -13 -9 -26z" />
    <glyph glyph-name="mu" unicode="&#xb5;" horiz-adv-x="577" 
d="M156 460h70l-65 -304q-4 -16 -4 -35q0 -74 77 -74q52 0 102 31t80 87l62 295h70l-97 -460h-55l10 86h-4q-22 -43 -74 -70.5t-117 -27.5q-72 0 -103 35l-6 -13q-32 -70 -86 -150l-58 29q56 76 86 133t45 125z" />
    <glyph glyph-name="paragraph" unicode="&#xb6;" horiz-adv-x="538" 
d="M212 -86l71 334h-21q-95 0 -143 46t-48 119q0 116 81 184t209 68q18 0 158 -5l-158 -746h-45l145 685h-54l-145 -685h-50z" />
    <glyph glyph-name="periodcentered" unicode="&#xb7;" horiz-adv-x="243" 
d="M67 235q0 21 18 38.5t40 17.5q16 0 27 -12t11 -29q0 -20 -18.5 -36.5t-39.5 -16.5q-17 0 -27.5 11t-10.5 27z" />
    <glyph glyph-name="cedilla" unicode="&#xb8;" horiz-adv-x="202" 
d="M-38 -184v6l18 23h7q30 -12 67 -12q64 0 64 51q0 35 -44 35q-24 0 -50 -7l-6 11l67 77h34l-41 -51q19 4 35 4q30 0 47.5 -16.5t17.5 -43.5q0 -38 -39 -67t-90 -29q-46 0 -87 19z" />
    <glyph glyph-name="onesuperior" unicode="&#xb9;" horiz-adv-x="244" 
d="M246 665l-78 -366h-54l61 286l-63 -28l-4 42z" />
    <glyph glyph-name="ordmasculine" unicode="&#xba;" horiz-adv-x="389" 
d="M274 658q54 0 83 -33.5t29 -84.5q0 -67 -47.5 -119t-125.5 -52q-56 0 -84 32.5t-28 81.5q0 70 50 122.5t123 52.5zM222 410q56 0 84 37t28 89q0 34 -18 56t-54 22q-58 0 -83.5 -38t-25.5 -88q0 -35 17.5 -56.5t51.5 -21.5z" />
    <glyph glyph-name="guillemotright" unicode="&#xbb;" horiz-adv-x="481" 
d="M354 238l1 5l-107 177h79l97 -177l-1 -5l-171 -177h-80zM192 238l1 5l-107 177h79l97 -177l-1 -5l-171 -177h-80z" />
    <glyph glyph-name="onequarter" unicode="&#xbc;" horiz-adv-x="712" 
d="M643 152l-9 -42h-36l-24 -111h-45l24 111h-150l9 42l192 213h48l-45 -213h36zM463 152h99l33 154zM697 691l-615 -715h-65l615 715h65zM243 665l-78 -366h-54l61 286l-63 -28l-4 42z" />
    <glyph glyph-name="onehalf" unicode="&#xbd;" horiz-adv-x="714" 
d="M245 665l-78 -366h-54l61 286l-63 -28l-4 42zM679 691l-615 -715h-65l615 715h65zM461 271l-2 44q65 49 119 49q44 0 67.5 -21t23.5 -57q0 -28 -11.5 -54t-37 -51.5t-47 -43.5t-63 -48.5t-63.5 -48.5h175l-9 -42h-236l9 42q25 25 70.5 60t77.5 59t57 56.5t25 62.5
q0 46 -48 46q-54 0 -107 -53z" />
    <glyph glyph-name="threequarters" unicode="&#xbe;" horiz-adv-x="751" 
d="M140 596l-3 39q55 30 94 30q95 0 95 -74q0 -56 -75 -90q59 -19 59 -73q0 -53 -44 -93.5t-124 -40.5q-32 0 -52 9t-41 29l21 40q14 -14 22 -20.5t22.5 -12t33.5 -5.5q58 0 85.5 26.5t27.5 70.5q0 50 -82 50h-12l7 34h15q43 0 65 20.5t22 54.5q0 35 -50 35q-42 0 -86 -29z
M681 152l-9 -42h-36l-24 -111h-45l24 111h-150l9 42l192 213h48l-45 -213h36zM501 152h99l33 154zM749 691l-615 -715h-65l615 715h65z" />
    <glyph glyph-name="questiondown" unicode="&#xbf;" horiz-adv-x="406" 
d="M306 437q0 -21 -17.5 -38.5t-39.5 -17.5q-17 0 -28 11.5t-11 28.5q0 21 19 37.5t40 16.5q16 0 26.5 -11t10.5 -27zM270 -107l4 -66q-74 -49 -155 -49q-68 0 -106 35.5t-38 94.5q0 40 19.5 77.5t49 71t61 68.5t60 84t40.5 104h64q-13 -60 -41 -111t-57.5 -84.5t-58 -63.5
t-46.5 -63.5t-18 -70.5q0 -34 22 -55.5t64 -21.5q32 0 71 14.5t65 35.5z" />
    <glyph glyph-name="Agrave" unicode="&#xc0;" horiz-adv-x="643" 
d="M445 660l150 -660h-85l-50 222h-295l-135 -222h-80l404 660h91zM381 576l-174 -284h237zM525 721l-8 -3l-185 77q-1 3 -1 11q0 18 11.5 29.5t31.5 12.5l160 -100l1 -7z" />
    <glyph glyph-name="Aacute" unicode="&#xc1;" horiz-adv-x="643" 
d="M445 660l150 -660h-85l-50 222h-295l-135 -222h-80l404 660h91zM381 576l-174 -284h237zM325 718l-7 3l-1 20l4 7l201 100q29 -1 29 -27q0 -14 -8 -26z" />
    <glyph glyph-name="Acircumflex" unicode="&#xc2;" horiz-adv-x="643" 
d="M445 660l150 -660h-85l-50 222h-295l-135 -222h-80l404 660h91zM381 576l-174 -284h237zM446 842h8l89 -99l1 -7l-10 -20l-7 -3l-91 62l-117 -62l-7 3l-2 20l5 7z" />
    <glyph glyph-name="Atilde" unicode="&#xc3;" horiz-adv-x="643" 
d="M445 660l150 -660h-85l-50 222h-295l-135 -222h-80l404 660h91zM381 576l-174 -284h237zM601 832q-14 -32 -40.5 -54.5t-64.5 -22.5q-28 0 -80 7t-72 7q-23 0 -34 -5.5t-26 -19.5l-11 8q40 76 107 76q36 0 76.5 -7t63.5 -7q45 0 71 26z" />
    <glyph glyph-name="Adieresis" unicode="&#xc4;" horiz-adv-x="643" 
d="M445 660l150 -660h-85l-50 222h-295l-135 -222h-80l404 660h91zM381 576l-174 -284h237zM317 786q0 20 16 36.5t35 16.5q14 0 24 -11t10 -27q0 -20 -17 -35.5t-36 -15.5q-15 0 -23.5 10t-8.5 26zM474 786q0 20 16 36.5t35 16.5q13 0 23 -11t10 -26q0 -21 -16.5 -36.5
t-35.5 -15.5q-14 0 -23 10t-9 26z" />
    <glyph glyph-name="Aring" unicode="&#xc5;" horiz-adv-x="643" 
d="M425 782q33 0 52 -19t19 -47q0 -46 -48 -71l147 -645h-85l-50 222h-295l-135 -222h-80l395 645q-25 16 -25 49q0 34 31 61t74 27zM380 576l-172 -284h236zM399 654q22 0 39.5 18t17.5 40q0 17 -10.5 28.5t-27.5 11.5q-25 0 -41.5 -16t-16.5 -39q0 -18 11 -30.5t28 -12.5z
" />
    <glyph glyph-name="AE" unicode="&#xc6;" horiz-adv-x="762" 
d="M680 70l-15 -70h-332l47 222h-194l-165 -222h-82l492 660h354l-15 -70h-237l-43 -205h170l-15 -70h-170l-52 -245h257zM238 292h157l63 296z" />
    <glyph glyph-name="Ccedilla" unicode="&#xc7;" horiz-adv-x="644" 
d="M181 -184l1 6l17 23h7q30 -12 67 -12q63 0 63 51q0 35 -43 35q-22 0 -50 -7l-6 11l57 66q-116 8 -174.5 79.5t-58.5 179.5q0 81 28.5 156t80.5 133.5t131 93t173 34.5q114 0 192 -43l-37 -72q-63 49 -175 49q-88 0 -151.5 -30.5t-96.5 -82.5t-47.5 -109.5t-14.5 -124.5
q0 -97 48.5 -147.5t143.5 -50.5q125 0 214 62l6 -67q-109 -58 -226 -61l-32 -39q16 4 33 4q30 0 48 -16.5t18 -42.5q0 -39 -38.5 -68t-90.5 -29q-47 0 -87 19z" />
    <glyph glyph-name="Egrave" unicode="&#xc8;" horiz-adv-x="522" 
d="M439 70l-15 -70h-382l140 660h362l-15 -70h-287l-43 -205h220l-15 -70h-220l-52 -245h307zM477 721l-8 -3l-185 77q-1 3 -1 11q0 18 11.5 29.5t31.5 12.5l160 -100l2 -7z" />
    <glyph glyph-name="Eacute" unicode="&#xc9;" horiz-adv-x="522" 
d="M439 70l-15 -70h-382l140 660h362l-15 -70h-287l-43 -205h220l-15 -70h-220l-52 -245h307zM287 718l-7 3l-1 20l4 7l202 100q29 -2 29 -27q0 -10 -9 -26z" />
    <glyph glyph-name="Ecircumflex" unicode="&#xca;" horiz-adv-x="522" 
d="M439 70l-15 -70h-382l140 660h362l-15 -70h-287l-43 -205h220l-15 -70h-220l-52 -245h307zM405 842h8l89 -99l1 -7l-10 -20l-7 -3l-91 62l-117 -62l-7 3l-2 20l5 7z" />
    <glyph glyph-name="Edieresis" unicode="&#xcb;" horiz-adv-x="522" 
d="M439 70l-15 -70h-382l140 660h362l-15 -70h-287l-43 -205h220l-15 -70h-220l-52 -245h307zM269 786q0 20 16 36.5t35 16.5q14 0 24 -11t10 -27q0 -20 -17 -35.5t-36 -15.5q-15 0 -23.5 10t-8.5 26zM426 786q0 20 16 36.5t35 16.5q14 0 24 -11t10 -27q0 -20 -17 -35.5
t-36 -15.5q-15 0 -23.5 10t-8.5 26z" />
    <glyph glyph-name="Igrave" unicode="&#xcc;" horiz-adv-x="274" 
d="M324 721l-7 -3l-186 77q-1 3 -1 11q0 18 12 29.5t31 12.5l160 -100l2 -7zM257 660l-140 -660h-75l140 660h75z" />
    <glyph glyph-name="Iacute" unicode="&#xcd;" horiz-adv-x="274" 
d="M145 718l-8 3l-1 20l4 7l202 100q29 -1 29 -27q0 -10 -9 -26zM257 660l-140 -660h-75l140 660h75z" />
    <glyph glyph-name="Icircumflex" unicode="&#xce;" horiz-adv-x="274" 
d="M253 842h7l90 -99l1 -7l-10 -20l-8 -3l-90 62l-117 -62l-8 3l-1 20l5 7zM257 660l-140 -660h-75l140 660h75z" />
    <glyph glyph-name="Idieresis" unicode="&#xcf;" horiz-adv-x="274" 
d="M130 786q0 20 16 36.5t35 16.5q14 0 24 -11t10 -27q0 -20 -17 -35.5t-36 -15.5q-14 0 -23 10t-9 26zM287 786q0 20 16 36.5t35 16.5q14 0 24 -11t10 -27q0 -20 -17 -35.5t-36 -15.5q-15 0 -23.5 10t-8.5 26zM257 660l-140 -660h-75l140 660h75z" />
    <glyph glyph-name="Eth" unicode="&#xd0;" horiz-adv-x="714" 
d="M116 326h-87l9 44h87l62 290l5 1q39 5 104 5q135 0 206 -14t117 -62q56 -60 56 -185q0 -108 -45 -201.5t-138.5 -154.5t-218.5 -61q-110 0 -226 12zM200 370h175l-9 -44h-175l-57 -266q63 -6 150 -6q150 0 229.5 96.5t79.5 257.5q0 191 -195 191q-86 0 -150 -3z" />
    <glyph glyph-name="Ntilde" unicode="&#xd1;" horiz-adv-x="705" 
d="M267 660l231 -543l115 543h75l-140 -660h-85l-231 542l-115 -542h-75l140 660h85zM614 832q-14 -32 -40.5 -54.5t-64.5 -22.5q-28 0 -80 7t-72 7q-23 0 -34 -5.5t-26 -19.5l-11 8q40 76 107 76q36 0 76.5 -7t63.5 -7q45 0 71 26z" />
    <glyph glyph-name="Ograve" unicode="&#xd2;" horiz-adv-x="762" 
d="M552 721l-9 -3l-185 77q0 1 -0.5 5t-0.5 6q0 18 12 29.5t32 12.5l158 -100l2 -7zM465 665q126 0 193 -75.5t67 -191.5q0 -75 -29 -148t-80 -131.5t-130 -94.5t-172 -36q-126 0 -190 73.5t-64 187.5q0 81 29.5 156.5t81.5 133t128.5 92t165.5 34.5zM138 246
q0 -90 52.5 -141t147.5 -51q75 0 136 30.5t98 81t56.5 112t19.5 127.5q0 89 -52 141.5t-157 52.5q-77 0 -137 -30.5t-94.5 -82t-52 -112.5t-17.5 -128z" />
    <glyph glyph-name="Oacute" unicode="&#xd3;" horiz-adv-x="762" 
d="M418 718l-7 3l-1 20l4 7l202 100q28 -1 28 -27q0 -10 -8 -26zM465 665q126 0 193 -75.5t67 -191.5q0 -75 -29 -148t-80 -131.5t-130 -94.5t-172 -36q-126 0 -190 73.5t-64 187.5q0 81 29.5 156.5t81.5 133t128.5 92t165.5 34.5zM138 246q0 -90 52.5 -141t147.5 -51
q75 0 136 30.5t98 81t56.5 112t19.5 127.5q0 89 -52 141.5t-157 52.5q-77 0 -137 -30.5t-94.5 -82t-52 -112.5t-17.5 -128z" />
    <glyph glyph-name="Ocircumflex" unicode="&#xd4;" horiz-adv-x="762" 
d="M508 842h8l89 -99l2 -7l-10 -20l-8 -3l-91 62l-117 -62l-6 3l-2 20l4 7zM465 665q126 0 193 -75.5t67 -191.5q0 -75 -29 -148t-80 -131.5t-130 -94.5t-172 -36q-126 0 -190 73.5t-64 187.5q0 81 29.5 156.5t81.5 133t128.5 92t165.5 34.5zM138 246q0 -90 52.5 -141
t147.5 -51q75 0 136 30.5t98 81t56.5 112t19.5 127.5q0 89 -52 141.5t-157 52.5q-77 0 -137 -30.5t-94.5 -82t-52 -112.5t-17.5 -128z" />
    <glyph glyph-name="Otilde" unicode="&#xd5;" horiz-adv-x="762" 
d="M657 832q-13 -32 -39.5 -54.5t-64.5 -22.5q-28 0 -80 7t-72 7q-35 0 -60 -25l-12 8q42 76 107 76q36 0 76.5 -7t63.5 -7q46 0 71 26zM465 665q126 0 193 -75.5t67 -191.5q0 -75 -29 -148t-80 -131.5t-130 -94.5t-172 -36q-126 0 -190 73.5t-64 187.5q0 81 29.5 156.5
t81.5 133t128.5 92t165.5 34.5zM138 246q0 -90 52.5 -141t147.5 -51q75 0 136 30.5t98 81t56.5 112t19.5 127.5q0 89 -52 141.5t-157 52.5q-77 0 -137 -30.5t-94.5 -82t-52 -112.5t-17.5 -128z" />
    <glyph glyph-name="Odieresis" unicode="&#xd6;" horiz-adv-x="762" 
d="M372 786q0 20 16 36.5t36 16.5q14 0 23.5 -11t9.5 -27q0 -20 -16.5 -35.5t-35.5 -15.5q-15 0 -24 10t-9 26zM529 786q0 20 16 36.5t36 16.5q14 0 23.5 -11t9.5 -27q0 -20 -16.5 -35.5t-35.5 -15.5q-15 0 -24 10t-9 26zM465 665q126 0 193 -75.5t67 -191.5q0 -75 -29 -148
t-80 -131.5t-130 -94.5t-172 -36q-126 0 -190 73.5t-64 187.5q0 81 29.5 156.5t81.5 133t128.5 92t165.5 34.5zM138 246q0 -90 52.5 -141t147.5 -51q75 0 136 30.5t98 81t56.5 112t19.5 127.5q0 89 -52 141.5t-157 52.5q-77 0 -137 -30.5t-94.5 -82t-52 -112.5t-17.5 -128z
" />
    <glyph glyph-name="multiply" unicode="&#xd7;" horiz-adv-x="456" 
d="M308 80l-96 122l-146 -121l-29 37l146 121l-95 120l45 37l95 -120l147 121l29 -37l-147 -121l96 -122z" />
    <glyph glyph-name="Oslash" unicode="&#xd8;" horiz-adv-x="761" 
d="M4 8l93 89q-37 64 -37 152q0 81 29.5 156.5t81.5 133t128.5 92t165.5 34.5q105 0 172 -57l83 79l43 -39l-87 -83q48 -69 48 -167q0 -102 -48 -194.5t-144 -154t-218 -61.5q-115 0 -180 63l-91 -86zM648 405q0 63 -27 109l-431 -409q53 -51 148 -51q75 0 136 30.5t98 81
t56.5 112t19.5 127.5zM138 246q0 -54 18 -93l427 404q-53 42 -144 42q-77 0 -137 -30.5t-94.5 -82t-52 -112.5t-17.5 -128z" />
    <glyph glyph-name="Ugrave" unicode="&#xd9;" horiz-adv-x="689" 
d="M530 721l-9 -3l-184 77q-1 3 -1 11q0 18 11.5 29.5t31.5 12.5l160 -100v-7zM250 660l-86 -404q-9 -40 -9 -72q0 -130 145 -130q180 0 223 202l86 404h70l-93 -438q-22 -103 -100 -168t-200 -65q-212 0 -212 166q0 30 8 67l93 438h75z" />
    <glyph glyph-name="Uacute" unicode="&#xda;" horiz-adv-x="689" 
d="M358 718l-7 3l-2 20l5 7l202 100q29 -2 29 -27q0 -10 -9 -26zM250 660l-86 -404q-9 -40 -9 -72q0 -130 145 -130q180 0 223 202l86 404h70l-93 -438q-22 -103 -100 -168t-200 -65q-212 0 -212 166q0 30 8 67l93 438h75z" />
    <glyph glyph-name="Ucircumflex" unicode="&#xdb;" horiz-adv-x="689" 
d="M459 842h7l90 -99v-7l-9 -20l-9 -3l-90 62l-117 -62l-8 3v20l4 7zM250 660l-86 -404q-9 -40 -9 -72q0 -130 145 -130q180 0 223 202l86 404h70l-93 -438q-22 -103 -100 -168t-200 -65q-212 0 -212 166q0 30 8 67l93 438h75z" />
    <glyph glyph-name="Udieresis" unicode="&#xdc;" horiz-adv-x="689" 
d="M346 786q0 20 16 36.5t36 16.5q14 0 23.5 -11t9.5 -27q0 -20 -16.5 -35.5t-35.5 -15.5q-15 0 -24 10t-9 26zM503 786q0 20 16 36.5t36 16.5q14 0 23.5 -11t9.5 -27q0 -20 -16.5 -35.5t-35.5 -15.5q-15 0 -24 10t-9 26zM250 660l-86 -404q-9 -40 -9 -72q0 -130 145 -130
q180 0 223 202l86 404h70l-93 -438q-22 -103 -100 -168t-200 -65q-212 0 -212 166q0 30 8 67l93 438h75z" />
    <glyph glyph-name="Yacute" unicode="&#xdd;" horiz-adv-x="565" 
d="M319 718l-7 3l-1 20l5 7l201 100q29 -2 29 -27q0 -10 -8 -26zM241 267l-173 393h89l142 -317l269 317h87l-338 -389l-57 -271h-75z" />
    <glyph glyph-name="Thorn" unicode="&#xde;" horiz-adv-x="522" 
d="M252 660l-27 -127q54 2 74 2q94 0 146 -41.5t52 -118.5q0 -99 -69.5 -168t-208.5 -69q-38 0 -77 3l-30 -141h-70l140 660h70zM287 469q-26 0 -76 -2l-55 -259q33 -4 73 -4q185 0 185 170q0 95 -127 95z" />
    <glyph glyph-name="germandbls" unicode="&#xdf;" horiz-adv-x="542" 
d="M192 486l-103 -486h-70l103 486q25 116 86.5 183t151.5 67q63 0 99.5 -33.5t36.5 -81.5q0 -36 -23.5 -73t-51.5 -61.5t-51.5 -53.5t-23.5 -52q0 -18 14.5 -36t35 -34t40.5 -34.5t34.5 -47t14.5 -62.5q0 -46 -19.5 -82t-49.5 -56t-60.5 -30.5t-57.5 -10.5q-59 0 -97 44
l35 71q8 -29 30.5 -46t50.5 -17q37 0 64 30t27 82q0 36 -20.5 64t-45 44t-45 42.5t-20.5 59.5q0 39 22.5 74.5t49 58.5t49 54t22.5 61q0 28 -20 46.5t-57 18.5q-35 0 -61 -15t-43 -44t-27.5 -58.5t-19.5 -71.5z" />
    <glyph glyph-name="agrave" unicode="&#xe0;" 
d="M433 552l-8 -3l-186 77q0 53 43 54l159 -101l2 -7zM482 460h55l-97 -460h-55l10 82h-4q-36 -40 -88 -67t-112 -27q-78 0 -118.5 51.5t-40.5 131.5q0 120 75.5 212t197.5 92q65 0 103 -28.5t42 -72.5zM211 47q49 0 101.5 27t89.5 74l31 147q-6 56 -41.5 88.5t-88.5 32.5
q-84 0 -140.5 -69.5t-56.5 -169.5q0 -56 25.5 -93t79.5 -37z" />
    <glyph glyph-name="aacute" unicode="&#xe1;" 
d="M307 549l-8 3v20l4 7l201 101q30 -2 30 -28q0 -11 -9 -26zM482 460h55l-97 -460h-55l10 82h-4q-36 -40 -88 -67t-112 -27q-78 0 -118.5 51.5t-40.5 131.5q0 120 75.5 212t197.5 92q65 0 103 -28.5t42 -72.5zM211 47q49 0 101.5 27t89.5 74l31 147q-6 56 -41.5 88.5
t-88.5 32.5q-84 0 -140.5 -69.5t-56.5 -169.5q0 -56 25.5 -93t79.5 -37z" />
    <glyph glyph-name="acircumflex" unicode="&#xe2;" 
d="M377 673h8l89 -99l1 -7l-10 -19l-7 -3l-91 61l-116 -61l-8 3l-2 19l5 7zM482 460h55l-97 -460h-55l10 82h-4q-36 -40 -88 -67t-112 -27q-78 0 -118.5 51.5t-40.5 131.5q0 120 75.5 212t197.5 92q65 0 103 -28.5t42 -72.5zM211 47q49 0 101.5 27t89.5 74l31 147
q-6 56 -41.5 88.5t-88.5 32.5q-84 0 -140.5 -69.5t-56.5 -169.5q0 -56 25.5 -93t79.5 -37z" />
    <glyph glyph-name="atilde" unicode="&#xe3;" 
d="M546 668q-2 -7 -13.5 -23.5t-37 -35t-53.5 -18.5q-12 0 -74.5 4.5t-85.5 4.5t-34 -5.5t-26 -19.5l-11 8q4 20 36.5 48t70.5 28q14 0 64.5 -4.5t82.5 -4.5q46 0 71 26zM482 460h55l-97 -460h-55l10 82h-4q-36 -40 -88 -67t-112 -27q-78 0 -118.5 51.5t-40.5 131.5
q0 120 75.5 212t197.5 92q65 0 103 -28.5t42 -72.5zM211 47q49 0 101.5 27t89.5 74l31 147q-6 56 -41.5 88.5t-88.5 32.5q-84 0 -140.5 -69.5t-56.5 -169.5q0 -56 25.5 -93t79.5 -37z" />
    <glyph glyph-name="adieresis" unicode="&#xe4;" 
d="M260 618q0 20 16 36.5t36 16.5q13 0 22.5 -11t9.5 -26q0 -21 -16.5 -36.5t-34.5 -15.5q-15 0 -24 10t-9 26zM417 617q0 21 16 37.5t35 16.5q14 0 23.5 -11t9.5 -27q0 -20 -16.5 -35.5t-35.5 -15.5q-14 0 -23 10t-9 25zM482 460h55l-97 -460h-55l10 82h-4q-36 -40 -88 -67
t-112 -27q-78 0 -118.5 51.5t-40.5 131.5q0 120 75.5 212t197.5 92q65 0 103 -28.5t42 -72.5zM211 47q49 0 101.5 27t89.5 74l31 147q-6 56 -41.5 88.5t-88.5 32.5q-84 0 -140.5 -69.5t-56.5 -169.5q0 -56 25.5 -93t79.5 -37z" />
    <glyph glyph-name="aring" unicode="&#xe5;" 
d="M397 683q32 0 50.5 -18.5t18.5 -44.5q0 -32 -28 -57t-71 -25q-34 0 -51.5 18t-17.5 43q0 32 29 58t70 26zM372 562q22 0 38.5 17.5t16.5 37.5q0 17 -9.5 29.5t-26.5 12.5q-23 0 -39 -18t-16 -38q0 -17 10 -29t26 -12zM482 460h55l-97 -460h-55l10 82h-4q-36 -40 -88 -67
t-112 -27q-78 0 -118.5 51.5t-40.5 131.5q0 120 75.5 212t197.5 92q65 0 103 -28.5t42 -72.5zM211 47q49 0 101.5 27t89.5 74l31 147q-6 56 -41.5 88.5t-88.5 32.5q-84 0 -140.5 -69.5t-56.5 -169.5q0 -56 25.5 -93t79.5 -37z" />
    <glyph glyph-name="ae" unicode="&#xe6;" horiz-adv-x="817" 
d="M429 396h4q38 35 90 57t107 22q74 0 113.5 -34.5t39.5 -97.5q0 -27 -8.5 -56t-18.5 -42h-337l-4 -18q-6 -27 -6 -51q0 -60 33 -97.5t97 -37.5q85 0 172 54l2 -53q-98 -54 -194 -54q-128 0 -170 100h-4q-95 -100 -234 -100q-52 0 -79.5 29t-27.5 76q0 63 32.5 106t86 61.5
t98 25t93.5 6.5h45l3 12q5 23 5 35q0 35 -27 57q-27 20 -84 20q-69 0 -144 -40l-3 60q75 39 168 39q83 0 122 -29q25 -20 30 -50zM145 47q43 0 94.5 27t88.5 74l20 93h-9q-53 0 -92 -4t-80.5 -16.5t-64 -41t-22.5 -71.5q0 -29 17 -45t48 -16zM615 419q-62 0 -107 -33
t-71 -88h273q8 16 8 36q0 40 -29 62.5t-74 22.5z" />
    <glyph glyph-name="ccedilla" unicode="&#xe7;" horiz-adv-x="500" 
d="M490 435l-30 -59q-19 18 -60 31t-82 13q-99 0 -153 -68t-54 -157q0 -66 34 -109t100 -43q40 0 85 15.5t78 41.5l3 -62q-79 -46 -180 -50l-32 -39q16 4 34 4q30 0 47.5 -16.5t17.5 -42.5q0 -39 -38.5 -68t-90.5 -29q-47 0 -87 19l1 6l18 23h7q28 -12 66 -12q63 0 63 51
q0 35 -43 35q-22 0 -50 -7l-6 11l57 66q-80 8 -120.5 60.5t-40.5 130.5q0 55 18.5 107t54 94.5t93.5 68t131 25.5q106 0 159 -40z" />
    <glyph glyph-name="egrave" unicode="&#xe8;" horiz-adv-x="515" 
d="M328 475q74 0 113.5 -34.5t39.5 -97.5q0 -27 -8.5 -56t-18.5 -42h-340q-6 -29 -6 -57q0 -64 32.5 -105.5t95.5 -41.5q84 0 173 54l2 -53q-98 -54 -194 -54q-89 0 -137 54.5t-48 137.5q0 118 83.5 206.5t212.5 88.5zM313 419q-65 0 -111.5 -33.5t-70.5 -87.5h277
q7 21 7 36q0 40 -29 62.5t-73 22.5zM411 552l-9 -3l-185 77q0 53 43 54l159 -101l1 -7z" />
    <glyph glyph-name="eacute" unicode="&#xe9;" horiz-adv-x="515" 
d="M328 475q74 0 113.5 -34.5t39.5 -97.5q0 -27 -8.5 -56t-18.5 -42h-340q-6 -29 -6 -57q0 -64 32.5 -105.5t95.5 -41.5q84 0 173 54l2 -53q-98 -54 -194 -54q-89 0 -137 54.5t-48 137.5q0 118 83.5 206.5t212.5 88.5zM313 419q-65 0 -111.5 -33.5t-70.5 -87.5h277
q7 21 7 36q0 40 -29 62.5t-73 22.5zM265 549l-6 3l-2 20l5 7l201 101q29 -1 29 -28q0 -12 -8 -26z" />
    <glyph glyph-name="ecircumflex" unicode="&#xea;" horiz-adv-x="515" 
d="M328 475q74 0 113.5 -34.5t39.5 -97.5q0 -27 -8.5 -56t-18.5 -42h-340q-6 -29 -6 -57q0 -64 32.5 -105.5t95.5 -41.5q84 0 173 54l2 -53q-98 -54 -194 -54q-89 0 -137 54.5t-48 137.5q0 118 83.5 206.5t212.5 88.5zM313 419q-65 0 -111.5 -33.5t-70.5 -87.5h277
q7 21 7 36q0 40 -29 62.5t-73 22.5zM354 673h7l90 -99v-7l-9 -19l-8 -3l-90 61l-117 -61l-8 3l-1 19l4 7z" />
    <glyph glyph-name="edieresis" unicode="&#xeb;" horiz-adv-x="515" 
d="M328 475q74 0 113.5 -34.5t39.5 -97.5q0 -27 -8.5 -56t-18.5 -42h-340q-6 -29 -6 -57q0 -64 32.5 -105.5t95.5 -41.5q84 0 173 54l2 -53q-98 -54 -194 -54q-89 0 -137 54.5t-48 137.5q0 118 83.5 206.5t212.5 88.5zM313 419q-65 0 -111.5 -33.5t-70.5 -87.5h277
q7 21 7 36q0 40 -29 62.5t-73 22.5zM381 618q0 20 16 36.5t35 16.5q14 0 24 -11t10 -27q0 -20 -17 -35.5t-36 -15.5q-14 0 -23 10t-9 26zM224 618q0 20 16 36.5t35 16.5q14 0 24 -11t10 -27q0 -20 -17 -35.5t-36 -15.5q-14 0 -23 10t-9 26z" />
    <glyph glyph-name="igrave" unicode="&#xec;" horiz-adv-x="224" 
d="M237 552l-8 -3l-185 77q-1 3 -1 11q0 18 12 30t32 13l159 -101l2 -7zM187 460l-98 -460h-70l98 460h70z" />
    <glyph glyph-name="iacute" unicode="&#xed;" horiz-adv-x="224" 
d="M86 549l-7 3l-1 20l4 7l202 101q29 -2 29 -28q0 -11 -9 -26zM187 460l-98 -460h-70l98 460h70z" />
    <glyph glyph-name="icircumflex" unicode="&#xee;" horiz-adv-x="224" 
d="M190 673h8l89 -99l2 -7l-11 -19l-7 -3l-91 61l-116 -61l-8 3l-1 19l4 7zM187 460l-98 -460h-70l98 460h70z" />
    <glyph glyph-name="idieresis" unicode="&#xef;" horiz-adv-x="224" 
d="M65 618q0 20 16 36.5t36 16.5q14 0 23.5 -11t9.5 -27q0 -20 -16.5 -35.5t-35.5 -15.5q-15 0 -24 10t-9 26zM222 618q0 20 16 36.5t36 16.5q14 0 23.5 -11t9.5 -27q0 -20 -16.5 -35.5t-35.5 -15.5q-15 0 -24 10t-9 26zM187 460l-98 -460h-70l98 460h70z" />
    <glyph glyph-name="eth" unicode="&#xf0;" horiz-adv-x="577" 
d="M372 740h73q29 -32 51 -95l126 32l8 -48l-121 -30q21 -82 21 -179q0 -55 -7 -108.5t-28 -114t-53.5 -105.5t-90 -74.5t-131.5 -29.5q-95 0 -140.5 54.5t-45.5 137.5q0 56 18.5 107.5t53.5 94t92 68t127 25.5q124 0 145 -79l3 1q-1 118 -20 189l-132 -32l-7 46l124 31
q-20 50 -66 109zM231 41q94 0 150.5 75.5t56.5 167.5q0 66 -34 101t-94 35q-97 0 -148.5 -71.5t-51.5 -161.5q0 -63 30 -104.5t91 -41.5z" />
    <glyph glyph-name="ntilde" unicode="&#xf1;" horiz-adv-x="543" 
d="M513 663q-34 -77 -104 -77q-28 0 -80 7t-72 7q-23 0 -34.5 -5.5t-26.5 -19.5l-11 8q42 76 107 76q36 0 76.5 -7t63.5 -7q46 0 71 26zM412 0h-70l65 304q4 19 4 38q0 74 -77 74q-52 0 -102.5 -32.5t-79.5 -88.5l-63 -295h-70l98 460h55l-11 -86h4q23 44 75 72.5t117 28.5
q128 0 128 -111q0 -22 -6 -51z" />
    <glyph glyph-name="ograve" unicode="&#xf2;" horiz-adv-x="564" 
d="M409 552l-7 -3l-186 77q-1 3 -1 11q0 17 12 29.5t31 13.5l160 -101l1 -7zM324 475q94 0 141 -54t47 -138q0 -120 -76.5 -207.5t-211.5 -87.5q-95 0 -143 53.5t-48 137.5q0 119 78.5 207.5t212.5 88.5zM235 41q94 0 147.5 70t53.5 162q0 64 -31.5 105t-95.5 41t-111 -35
t-68.5 -86.5t-21.5 -110.5q0 -63 31.5 -104.5t95.5 -41.5z" />
    <glyph glyph-name="oacute" unicode="&#xf3;" horiz-adv-x="564" 
d="M273 549l-7 3l-2 20l5 7l201 101q30 -2 30 -28q0 -11 -9 -26zM324 475q94 0 141 -54t47 -138q0 -120 -76.5 -207.5t-211.5 -87.5q-95 0 -143 53.5t-48 137.5q0 119 78.5 207.5t212.5 88.5zM235 41q94 0 147.5 70t53.5 162q0 64 -31.5 105t-95.5 41t-111 -35t-68.5 -86.5
t-21.5 -110.5q0 -63 31.5 -104.5t95.5 -41.5z" />
    <glyph glyph-name="ocircumflex" unicode="&#xf4;" horiz-adv-x="564" 
d="M371 673h7l89 -99l1 -7l-9 -19l-8 -3l-91 61l-116 -61l-8 3l-2 19l5 7zM324 475q94 0 141 -54t47 -138q0 -120 -76.5 -207.5t-211.5 -87.5q-95 0 -143 53.5t-48 137.5q0 119 78.5 207.5t212.5 88.5zM235 41q94 0 147.5 70t53.5 162q0 64 -31.5 105t-95.5 41t-111 -35
t-68.5 -86.5t-21.5 -110.5q0 -63 31.5 -104.5t95.5 -41.5z" />
    <glyph glyph-name="otilde" unicode="&#xf5;" horiz-adv-x="564" 
d="M511 663q-14 -32 -40.5 -54.5t-64.5 -22.5q-28 0 -80 7t-72 7q-23 0 -34 -5.5t-26 -19.5l-11 8q40 76 107 76q36 0 76.5 -7t63.5 -7q45 0 71 26zM324 475q94 0 141 -54t47 -138q0 -120 -76.5 -207.5t-211.5 -87.5q-95 0 -143 53.5t-48 137.5q0 119 78.5 207.5t212.5 88.5
zM235 41q94 0 147.5 70t53.5 162q0 64 -31.5 105t-95.5 41t-111 -35t-68.5 -86.5t-21.5 -110.5q0 -63 31.5 -104.5t95.5 -41.5z" />
    <glyph glyph-name="odieresis" unicode="&#xf6;" horiz-adv-x="564" 
d="M236 618q0 20 16 36.5t36 16.5q14 0 23.5 -11t9.5 -27q0 -20 -16.5 -35.5t-35.5 -15.5q-15 0 -24 10t-9 26zM393 618q0 20 16 36.5t36 16.5q14 0 23.5 -11t9.5 -27q0 -20 -16.5 -35.5t-35.5 -15.5q-15 0 -24 10t-9 26zM324 475q94 0 141 -54t47 -138q0 -120 -76.5 -207.5
t-211.5 -87.5q-95 0 -143 53.5t-48 137.5q0 119 78.5 207.5t212.5 88.5zM235 41q94 0 147.5 70t53.5 162q0 64 -31.5 105t-95.5 41t-111 -35t-68.5 -86.5t-21.5 -110.5q0 -63 31.5 -104.5t95.5 -41.5z" />
    <glyph glyph-name="divide" unicode="&#xf7;" horiz-adv-x="562" 
d="M73 265h414l-11 -52h-414zM204 72q0 22 18 38.5t40 16.5q16 0 27 -11.5t11 -28.5q0 -21 -18.5 -37.5t-39.5 -16.5q-17 0 -27.5 11t-10.5 28zM271 389q0 21 18 38.5t40 17.5q16 0 27 -12t11 -29q0 -20 -18.5 -36.5t-39.5 -16.5q-16 0 -27 11t-11 27z" />
    <glyph glyph-name="oslash" unicode="&#xf8;" horiz-adv-x="564" 
d="M-14 8l72 66q-25 44 -25 105q0 119 78.5 207.5t212.5 88.5q78 0 127 -41l65 60l43 -39l-72 -66q25 -46 25 -106q0 -77 -31 -142.5t-98 -109t-158 -43.5q-81 0 -130 41l-70 -64zM235 41q94 0 148 70t54 162q0 33 -9 61l-282 -259q32 -34 89 -34zM109 187q0 -35 8 -59
l281 257q-34 34 -89 34q-94 0 -147 -69.5t-53 -162.5z" />
    <glyph glyph-name="ugrave" unicode="&#xf9;" horiz-adv-x="542" 
d="M400 552l-9 -3l-184 77q-1 3 -1 11q0 18 11.5 30t31.5 13l159 -101l1 -7zM113 460h70l-65 -304q-5 -25 -5 -38q0 -71 77 -71q52 0 102.5 31t80.5 87l62 295h70l-98 -460h-55l11 86h-4q-22 -43 -74 -70.5t-117 -27.5q-128 0 -128 108q0 22 6 51z" />
    <glyph glyph-name="uacute" unicode="&#xfa;" horiz-adv-x="542" 
d="M237 549l-8 3v20l5 7l201 101q29 -2 29 -28q0 -8 -8 -26zM113 460h70l-65 -304q-5 -25 -5 -38q0 -71 77 -71q52 0 102.5 31t80.5 87l62 295h70l-98 -460h-55l11 86h-4q-22 -43 -74 -70.5t-117 -27.5q-128 0 -128 108q0 22 6 51z" />
    <glyph glyph-name="ucircumflex" unicode="&#xfb;" horiz-adv-x="542" 
d="M348 673h7l89 -99l1 -7l-9 -19l-9 -3l-91 61l-116 -61l-8 3v19l3 7zM113 460h70l-65 -304q-5 -25 -5 -38q0 -71 77 -71q52 0 102.5 31t80.5 87l62 295h70l-98 -460h-55l11 86h-4q-22 -43 -74 -70.5t-117 -27.5q-128 0 -128 108q0 22 6 51z" />
    <glyph glyph-name="udieresis" unicode="&#xfc;" horiz-adv-x="542" 
d="M219 618q0 20 16 36.5t36 16.5q14 0 24 -11t10 -27q0 -20 -17 -35.5t-36 -15.5q-15 0 -24 10t-9 26zM376 618q0 20 16 36.5t36 16.5q14 0 24 -11t10 -27q0 -20 -17 -35.5t-36 -15.5q-15 0 -24 10t-9 26zM113 460h70l-65 -304q-5 -25 -5 -38q0 -71 77 -71q52 0 102.5 31
t80.5 87l62 295h70l-98 -460h-55l11 86h-4q-22 -43 -74 -70.5t-117 -27.5q-128 0 -128 108q0 22 6 51z" />
    <glyph glyph-name="yacute" unicode="&#xfd;" horiz-adv-x="518" 
d="M263 549l-6 3l-2 20l5 7l201 101q29 -1 29 -28q0 -12 -8 -26zM548 460l-310 -464q-27 -41 -41 -61t-49 -63t-62.5 -66t-66.5 -42.5t-77 -19.5q-12 0 -19 3v66q12 -3 20 -3q45 0 77 20q73 45 154 185l-135 445h83l101 -383l246 383h79z" />
    <glyph glyph-name="thorn" unicode="&#xfe;" horiz-adv-x="576" 
d="M367 475q78 0 118.5 -51.5t40.5 -131.5q0 -120 -75.5 -212t-197.5 -92q-65 0 -103 28.5t-42 72.5l-74 -349h-70l213 1000h70l-78 -366q33 40 86.5 70.5t111.5 30.5zM337 416q-102 0 -181 -101l-31 -147q6 -55 45.5 -88t93.5 -33q83 0 134.5 69t51.5 162q0 60 -28 99
t-85 39z" />
    <glyph glyph-name="ydieresis" unicode="&#xff;" horiz-adv-x="518" 
d="M208 618q0 20 16 36.5t35 16.5q14 0 24 -11t10 -27q0 -20 -17 -35.5t-36 -15.5q-14 0 -23 10t-9 26zM365 618q0 20 16 36.5t35 16.5q14 0 24 -11t10 -27q0 -20 -17 -35.5t-36 -15.5q-14 0 -23 10t-9 26zM548 460l-310 -464q-27 -41 -41 -61t-49 -63t-62.5 -66
t-66.5 -42.5t-77 -19.5q-12 0 -19 3v66q12 -3 20 -3q45 0 77 20q73 45 154 185l-135 445h83l101 -383l246 383h79z" />
    <glyph glyph-name="Dcroat" unicode="&#x110;" horiz-adv-x="714" 
d="M116 326h-87l9 44h87l62 290l5 1q39 5 104 5q135 0 206 -14t117 -62q56 -60 56 -185q0 -108 -45 -201.5t-138.5 -154.5t-218.5 -61q-110 0 -226 12zM200 370h175l-9 -44h-175l-57 -266q63 -6 150 -6q150 0 229.5 96.5t79.5 257.5q0 191 -195 191q-86 0 -150 -3z" />
    <glyph glyph-name="dotlessi" unicode="&#x131;" horiz-adv-x="224" 
d="M187 460l-98 -460h-70l98 460h70z" />
    <glyph glyph-name="IJ" unicode="&#x132;" horiz-adv-x="548" 
d="M257 660l-140 -660h-75l140 660h75zM532 660l-119 -559q-24 -112 -84 -184.5t-145 -72.5l-2 55q37 0 65 17.5t45.5 51t27 63t18.5 71.5l119 558h75z" />
    <glyph glyph-name="ij" unicode="&#x133;" horiz-adv-x="452" 
d="M187 460l-98 -460h-70l98 460h70zM136 619q0 23 19.5 42t43.5 19q18 0 29.5 -13t11.5 -31q0 -23 -20 -40.5t-43 -17.5q-18 0 -29.5 12t-11.5 29zM414 460l-98 -463q-23 -109 -78.5 -182t-128.5 -73q-17 0 -21 3l-4 58q6 -3 21 -3q32 0 57 18t41.5 51t25.5 61.5t17 67.5
l98 462h70zM364 619q0 23 19 42t43 19q18 0 30 -13t12 -31q0 -23 -20 -40.5t-43 -17.5q-18 0 -29.5 12t-11.5 29z" />
    <glyph glyph-name="kgreenlandic" unicode="&#x138;" horiz-adv-x="471" 
d="M469 460l-199 -162l133 -298h-80l-112 250l-84 -69l-38 -181h-70l98 460h70l-42 -195l244 195h80z" />
    <glyph glyph-name="OE" unicode="&#x152;" horiz-adv-x="856" 
d="M773 70l-15 -70h-346q-45 -12 -98 -12q-126 0 -190 73.5t-64 187.5q0 81 29.5 156.5t81.5 133t128.5 92t165.5 34.5q33 0 71 -5h343l-15 -70h-268l-44 -205h201l-15 -70h-201l-52 -245h288zM330 54q43 0 79 9l112 527q-33 9 -73 9q-82 0 -143 -29.5t-95 -80t-50 -109.5
t-16 -127q0 -97 47.5 -148t138.5 -51z" />
    <glyph glyph-name="oe" unicode="&#x153;" horiz-adv-x="911" 
d="M724 474q74 0 113.5 -34.5t39.5 -97.5q0 -27 -8.5 -56t-18.5 -42h-337l-2 -10q-6 -29 -6 -56q0 -62 32 -100t96 -38q85 0 172 54l2 -53q-98 -54 -194 -54q-66 0 -110 27.5t-63 74.5q-80 -102 -216 -102q-95 0 -143 53.5t-48 137.5q0 119 78.5 207.5t212.5 88.5
q137 0 174 -107q87 107 226 107zM235 40q94 0 147.5 70t53.5 162q0 64 -31.5 105t-95.5 41t-111 -35t-68.5 -86.5t-21.5 -110.5q0 -63 31.5 -104.5t95.5 -41.5zM709 418q-62 0 -107 -33t-71 -88h273q8 16 8 36q0 40 -29 62.5t-74 22.5z" />
    <glyph glyph-name="Scaron" unicode="&#x160;" horiz-adv-x="556" 
d="M377 713h-7l-90 99v7l9 20l9 3l90 -62l117 62l7 -3l1 -20l-4 -7zM187 484q0 -36 30.5 -56t112.5 -49q36 -13 60.5 -25t50 -31t38.5 -47t13 -64q0 -77 -42.5 -129t-104 -73.5t-136.5 -21.5q-118 0 -206 55l37 73q39 -31 76.5 -46.5t100.5 -15.5q100 0 146.5 35.5
t46.5 92.5q0 27 -12 47.5t-37 36t-44 24t-52 20.5q-77 27 -115.5 62t-38.5 93q0 100 71 150t182 50q107 0 181 -38l-37 -77q-46 49 -162 49q-75 0 -117 -29t-42 -86z" />
    <glyph glyph-name="scaron" unicode="&#x161;" horiz-adv-x="442" 
d="M278 545h-7l-90 99l-1 6l9 20l9 3l90 -62l117 62l7 -3l1 -20l-3 -6zM245 419q-54 0 -80.5 -21t-26.5 -56q0 -47 62 -61l68 -16q106 -25 106 -107q0 -70 -61.5 -120t-155.5 -50q-97 0 -159 50l32 65q27 -31 67 -47t78 -16q53 0 87.5 28.5t34.5 67.5q0 48 -56 63l-91 24
q-87 23 -87 96q0 68 56.5 112t142.5 44q98 0 151 -41l-32 -60q-18 18 -55 31.5t-81 13.5z" />
    <glyph glyph-name="Ydieresis" unicode="&#x178;" horiz-adv-x="565" 
d="M273 786q0 20 16 36.5t36 16.5q13 0 22.5 -11t9.5 -26q0 -21 -16 -36.5t-35 -15.5q-15 0 -24 10t-9 26zM430 785q0 21 16 37.5t35 16.5q14 0 23.5 -11t9.5 -27q0 -20 -16.5 -35.5t-35.5 -15.5q-14 0 -23 10t-9 25zM241 267l-173 393h89l142 -317l269 317h87l-338 -389
l-57 -271h-75z" />
    <glyph glyph-name="Zcaron" unicode="&#x17d;" horiz-adv-x="552" 
d="M372 713h-8l-89 99l-2 7l10 20l9 3l90 -62l117 62l6 -3l2 -20l-4 -7zM468 70l-15 -70h-468l15 70l478 520h-353l15 70h438l-15 -70l-478 -520h383z" />
    <glyph glyph-name="zcaron" unicode="&#x17e;" horiz-adv-x="415" 
d="M265 545h-8l-89 99l-2 6l10 20l8 3l91 -62l117 62l6 -3l2 -20l-4 -6zM-17 0l13 60l315 341h-233l13 59h314l-13 -58l-317 -343h255l-13 -59h-334z" />
    <glyph glyph-name="florin" unicode="&#x192;" horiz-adv-x="619" 
d="M503 413h-116l-174 -416q-44 -107 -119 -181t-148 -74q-16 0 -20 3l8 58q6 -3 21 -3q32 0 61 17.5t52.5 49t40 62.5t33.5 71l173 413h-67l8 37l79 10l38 90q82 195 225 195q62 0 89 -17l-43 -63q-21 28 -77 28q-38 0 -63 -30.5t-70 -136.5l-28 -66h107z" />
    <glyph glyph-name="schwa" unicode="&#x259;" horiz-adv-x="516" 
d="M170 -12q-74 0 -113.5 34.5t-39.5 97.5q0 27 8.5 56t18.5 42h339q6 27 6 57q0 64 -32 105.5t-96 41.5q-78 0 -174 -58v57q98 54 194 54q89 0 137 -54.5t48 -137.5q0 -118 -83.5 -206.5t-212.5 -88.5zM185 44q65 0 111 33t70 88h-276q-8 -16 -8 -36q0 -40 29 -62.5
t74 -22.5z" />
    <glyph glyph-name="circumflex" unicode="&#x2c6;" horiz-adv-x="234" 
d="M257 673h8l88 -99l2 -7l-10 -19l-8 -3l-91 61l-117 -61l-6 3l-2 19l4 7z" />
    <glyph glyph-name="caron" unicode="&#x2c7;" horiz-adv-x="234" 
d="M237 545h-8l-89 99l-2 6l10 20l8 3l91 -62l117 62l6 -3l2 -20l-4 -6z" />
    <glyph glyph-name="dotaccent" unicode="&#x2d9;" horiz-adv-x="833" 
 />
    <glyph glyph-name="ring" unicode="&#x2da;" horiz-adv-x="164" 
d="M227 683q32 0 50 -18.5t18 -44.5q0 -32 -27.5 -57t-70.5 -25q-34 0 -51.5 18t-17.5 43q0 32 28.5 58t70.5 26zM202 562q21 0 37.5 17.5t16.5 37.5q0 17 -9.5 29.5t-25.5 12.5q-23 0 -39 -18t-16 -38q0 -17 10 -29t26 -12z" />
    <glyph glyph-name="tilde" unicode="&#x2dc;" horiz-adv-x="311" 
d="M452 663q-34 -77 -104 -77q-28 0 -80 7t-72 7q-23 0 -34.5 -5.5t-26.5 -19.5l-11 8q42 76 107 76q36 0 76.5 -7t63.5 -7q46 0 71 26z" />
    <glyph glyph-name="uni03BC" unicode="&#x3bc;" horiz-adv-x="551" 
d="M121 460h70l-65 -304q-4 -19 -4 -38q0 -71 77 -71q52 0 102 31t80 87l62 295h70l-97 -460h-55l10 86h-4q-22 -43 -74 -70.5t-117 -27.5q-72 0 -103 35l-6 -13q-32 -70 -86 -150l-58 29q56 76 86 133t45 125z" />
    <glyph glyph-name="endash" unicode="&#x2013;" horiz-adv-x="562" 
d="M72 265h414l-11 -52h-414z" />
    <glyph glyph-name="emdash" unicode="&#x2014;" horiz-adv-x="790" 
d="M72 265h642l-11 -52h-642z" />
    <glyph glyph-name="quoteleft" unicode="&#x2018;" horiz-adv-x="223" 
d="M242 734l16 -19l-55 -73h25l-19 -90h-79l22 105z" />
    <glyph glyph-name="quoteright" unicode="&#x2019;" horiz-adv-x="205" 
d="M138 552l-16 19l55 73h-25l19 90h79l-23 -105z" />
    <glyph glyph-name="quotesinglbase" unicode="&#x201a;" horiz-adv-x="240" 
d="M10 -97l-16 19l55 73h-25l19 90h79l-23 -105z" />
    <glyph glyph-name="quotedblleft" unicode="&#x201c;" horiz-adv-x="373" 
d="M242 734l16 -19l-55 -73h25l-19 -90h-79l22 105zM392 734l16 -19l-55 -73h25l-19 -90h-79l22 105z" />
    <glyph glyph-name="quotedblright" unicode="&#x201d;" horiz-adv-x="355" 
d="M288 552l-16 19l55 73h-25l19 90h79l-23 -105zM138 552l-16 19l55 73h-25l19 90h79l-23 -105z" />
    <glyph glyph-name="quotedblbase" unicode="&#x201e;" horiz-adv-x="401" 
d="M10 -97l-16 19l55 73h-25l19 90h79l-23 -105zM171 -97l-16 19l55 73h-25l19 90h79l-23 -105z" />
    <glyph glyph-name="dagger" unicode="&#x2020;" horiz-adv-x="469" 
d="M244 109h-90l82 325l-167 -12l16 73l161 -12l32 209h90l-56 -209l167 12l-16 -73l-161 12z" />
    <glyph glyph-name="daggerdbl" unicode="&#x2021;" horiz-adv-x="505" 
d="M224 -71h-90l56 209h-9l-157 -13l16 74l151 -13h10l53 248h-10l-157 -12l16 73l151 -12h10l33 209h90l-57 -209h9l158 12l-16 -73l-152 12h-9l-53 -248h9l158 13l-16 -74l-152 13h-9z" />
    <glyph glyph-name="bullet" unicode="&#x2022;" horiz-adv-x="331" 
d="M89 231q0 31 26 56t58 25q23 0 39 -17.5t16 -41.5q0 -31 -26.5 -54t-57.5 -23q-24 0 -39.5 15.5t-15.5 39.5z" />
    <glyph glyph-name="ellipsis" unicode="&#x2026;" horiz-adv-x="610" 
d="M22 27q0 21 18 38.5t40 17.5q16 0 27 -12t11 -29q0 -20 -18.5 -36.5t-39.5 -16.5q-17 0 -27.5 11t-10.5 27zM211 27q0 21 18.5 38.5t39.5 17.5q16 0 27 -12t11 -29q0 -20 -18.5 -36.5t-39.5 -16.5q-16 0 -27 11t-11 27zM400 27q0 21 18.5 38.5t39.5 17.5q16 0 27 -12
t11 -29q0 -20 -18.5 -36.5t-39.5 -16.5q-16 0 -27 11t-11 27z" />
    <glyph glyph-name="perthousand" unicode="&#x2030;" horiz-adv-x="1182" 
d="M273 665q55 0 84.5 -39.5t29.5 -101.5q0 -88 -56.5 -159t-140.5 -71q-54 0 -82 38.5t-28 98.5q0 94 56 164t137 70zM201 339q63 0 97 56.5t34 128.5q0 44 -17.5 70t-52.5 26t-61 -18.5t-39.5 -48t-19.5 -60t-6 -61.5q0 -93 65 -93zM765 691l-615 -715h-65l615 715h65z
M657 364q55 0 84.5 -40t29.5 -101q0 -88 -56.5 -159t-140.5 -71q-54 0 -82 38.5t-28 98.5q0 94 56 164t137 70zM585 38q63 0 97 56.5t34 128.5q0 44 -17.5 70t-52.5 26t-61 -18.5t-39.5 -48t-19.5 -60t-6 -61.5q0 -93 65 -93zM1017 364q55 0 84.5 -40t29.5 -101
q0 -88 -56.5 -159t-140.5 -71q-54 0 -82 38.5t-28 98.5q0 94 56 164t137 70zM945 38q63 0 97 56.5t34 128.5q0 44 -17.5 70t-52.5 26t-61 -18.5t-39.5 -48t-19.5 -60t-6 -61.5q0 -93 65 -93z" />
    <glyph glyph-name="guilsinglleft" unicode="&#x2039;" horiz-adv-x="319" 
d="M113 243l-1 -5l106 -177h-80l-95 177l1 5l172 177h79z" />
    <glyph glyph-name="guilsinglright" unicode="&#x203a;" horiz-adv-x="319" 
d="M192 238l1 5l-107 177h79l97 -177l-1 -5l-171 -177h-80z" />
    <glyph glyph-name="fraction" unicode="&#x2044;" horiz-adv-x="520" 
d="M613 691l-615 -715h-65l615 715h65z" />
    <glyph glyph-name="zerosuperior" unicode="&#x2070;" horiz-adv-x="409" 
d="M287 665q55 0 84.5 -39.5t29.5 -101.5q0 -88 -56.5 -159t-140.5 -71q-54 0 -82 38.5t-28 98.5q0 94 56 164t137 70zM215 339q63 0 97 56.5t34 128.5q0 44 -17.5 70t-52.5 26t-61 -18.5t-39.5 -48t-19.5 -60t-6 -61.5q0 -93 65 -93z" />
    <glyph glyph-name="foursuperior" unicode="&#x2074;" horiz-adv-x="330" 
d="M310 452l-9 -42h-36l-24 -111h-45l24 111h-150l9 42l192 213h48l-45 -213h36zM130 452h99l33 154z" />
    <glyph glyph-name="zeroinferior" unicode="&#x2080;" horiz-adv-x="423" 
d="M232 366q55 0 84.5 -40t29.5 -101q0 -88 -56.5 -159t-140.5 -71q-54 0 -82 38.5t-28 98.5q0 94 56 164t137 70zM160 40q63 0 97 56.5t34 128.5q0 44 -17.5 70t-52.5 26t-61 -18.5t-39.5 -48t-19.5 -60t-6 -61.5q0 -93 65 -93z" />
    <glyph glyph-name="oneinferior" unicode="&#x2081;" horiz-adv-x="256" 
d="M189 366l-78 -366h-54l61 286l-63 -28l-4 42z" />
    <glyph glyph-name="twoinferior" unicode="&#x2082;" horiz-adv-x="355" 
d="M82 273l-2 44q65 49 119 49q44 0 67.5 -21t23.5 -57q0 -28 -11.5 -54t-37 -51.5t-47 -43.5t-63 -48.5t-63.5 -48.5h175l-9 -42h-236l9 42q25 25 70.5 60t77.5 59t57 56.5t25 62.5q0 46 -48 46q-54 0 -107 -53z" />
    <glyph glyph-name="threeinferior" unicode="&#x2083;" horiz-adv-x="358" 
d="M92 297l-3 39q55 30 94 30q95 0 95 -74q0 -56 -75 -90q59 -19 59 -73q0 -53 -44 -93.5t-124 -40.5q-32 0 -52 9t-41 29l21 40q14 -14 22 -20.5t22.5 -12t33.5 -5.5q58 0 85.5 26.5t27.5 70.5q0 50 -82 50h-12l7 34h15q43 0 65 20.5t22 54.5q0 35 -50 35q-42 0 -86 -29z
" />
    <glyph glyph-name="fourinferior" unicode="&#x2084;" horiz-adv-x="332" 
d="M247 153l-9 -42h-36l-24 -111h-45l24 111h-150l9 42l192 213h48l-45 -213h36zM67 153h99l33 154z" />
    <glyph glyph-name="Euro" unicode="&#x20ac;" horiz-adv-x="619" 
d="M68 412h77q42 113 128 183t201 70q101 0 162 -43l-36 -72q-52 49 -146 49q-177 0 -234 -187h267l-11 -52h-269q-5 -23 -7 -53h265l-11 -52h-257v-17q0 -90 35 -137t104 -47q106 0 184 62l6 -67q-103 -61 -207 -61q-102 0 -153.5 69.5t-51.5 178.5v19h-79l11 52h73
q3 28 10 53h-72z" />
    <glyph glyph-name="trademark" unicode="&#x2122;" horiz-adv-x="686" 
d="M453 369l-39 210l-45 -210h-38l60 284h48l47 -242l148 242h47l-60 -284h-39l44 209l-128 -209h-45zM354 653l-8 -39h-84l-52 -245h-47l52 245h-84l8 39h215z" />
    <glyph glyph-name="onethird" unicode="&#x2153;" horiz-adv-x="711" 
d="M469 297l-3 39q55 30 94 30q95 0 95 -74q0 -56 -75 -90q59 -19 59 -73q0 -53 -44 -93.5t-124 -40.5q-32 0 -52 9t-41 29l21 40q14 -14 22 -20.5t22.5 -12t33.5 -5.5q58 0 85.5 26.5t27.5 70.5q0 50 -82 50h-12l7 34h15q43 0 65 20.5t22 54.5q0 35 -50 35q-43 0 -86 -29z
M679 691l-615 -715h-65l615 715h65zM245 665l-78 -366h-54l61 286l-63 -28l-4 42z" />
    <glyph glyph-name="twothirds" unicode="&#x2154;" horiz-adv-x="757" 
d="M133 572l-2 44q65 49 119 49q44 0 67.5 -21t23.5 -57q0 -28 -11.5 -54t-37 -51.5t-47 -43.5t-63 -48.5t-63.5 -48.5h175l-9 -42h-236l9 42q25 25 70.5 60t77.5 59t57 56.5t25 62.5q0 46 -48 46q-54 0 -107 -53zM746 691l-615 -715h-65l615 715h65zM511 297l-3 39
q55 30 94 30q95 0 95 -74q0 -56 -75 -90q59 -19 59 -73q0 -53 -44 -93.5t-124 -40.5q-32 0 -52 9t-41 29l21 40q14 -14 22 -20.5t22.5 -12t33.5 -5.5q58 0 85.5 26.5t27.5 70.5q0 50 -82 50h-12l7 34h15q43 0 65 20.5t22 54.5q0 35 -50 35q-43 0 -86 -29z" />
    <glyph glyph-name="minus" unicode="&#x2212;" horiz-adv-x="567" 
d="M74 265h414l-11 -52h-414z" />
    <glyph glyph-name="uni2215" unicode="&#x2215;" horiz-adv-x="523" 
d="M615 691l-615 -715h-65l615 715h65z" />
    <glyph glyph-name="---Components---" horiz-adv-x="0" 
 />
    </font>
</defs>
</svg>
