<?xml version="1.0" standalone="no"?>
<!DOCTYPE svg PUBLIC "-//W3C//DTD SVG 20010904//EN"
 "http://www.w3.org/TR/2001/REC-SVG-20010904/DTD/svg10.dtd">
<svg version="1.0" xmlns="http://www.w3.org/2000/svg"
 width="50.000000pt" height="89.000000pt" viewBox="0 0 450.000000 489.000000"
 preserveAspectRatio="xMidYMid meet">
<g transform="translate(0.000000,489.000000) scale(0.100000,-0.100000)"
fill="#7c7c7c" stroke="none">
<path d="M1365 4264 c-167 -59 -235 -168 -235 -381 0 -62 -3 -113 -7 -113 -5
0 -71 -2 -148 -4 -165 -3 -214 -17 -275 -78 -22 -22 -49 -61 -60 -86 -20 -44
-20 -68 -20 -1382 0 -1328 0 -1338 21 -1384 24 -55 74 -108 129 -136 39 -20
57 -20 1518 -20 1442 0 1481 0 1523 19 45 20 90 62 125 116 19 29 19 64 19
1405 l0 1375 -33 47 c-68 98 -120 118 -318 125 l-151 5 -6 137 c-4 114 -9 143
-27 178 -35 68 -96 130 -158 160 -51 24 -71 28 -179 31 -101 3 -132 1 -175
-14 -59 -21 -145 -80 -168 -116 -52 -82 -54 -89 -58 -228 -2 -74 -7 -138 -11
-143 -5 -5 -567 -11 -748 -7 -10 0 -13 29 -13 113 0 215 -63 317 -238 381 -55
21 -249 21 -307 0z m263 -266 c17 -17 17 -649 0 -666 -8 -8 -47 -12 -108 -12
-61 0 -100 4 -108 12 -17 17 -17 649 0 666 16 16 200 16 216 0z m1546 -10 c14
-19 16 -67 16 -323 0 -256 -2 -304 -16 -323 -14 -20 -23 -22 -110 -22 -142 0
-133 -22 -134 343 0 369 -9 346 132 347 89 0 98 -2 112 -22z m-1719 -1283 l0
-280 -273 -5 c-151 -3 -280 -1 -288 3 -12 7 -14 55 -14 281 0 150 3 276 7 279
4 4 133 6 287 5 l281 -3 0 -280z m759 279 c14 -5 16 -40 16 -280 0 -262 -1
-275 -19 -282 -11 -4 -156 -5 -323 -2 l-303 5 -3 270 c-1 148 0 275 3 282 3
10 73 13 309 13 167 0 311 -3 320 -6z m778 -270 c2 -152 0 -280 -3 -285 -4 -7
-439 -13 -616 -9 -10 0 -13 62 -13 278 0 153 3 282 7 285 3 4 145 7 314 7
l308 0 3 -276z m713 -9 l0 -280 -273 -5 c-151 -3 -280 -1 -288 3 -12 7 -14 55
-14 281 0 150 3 276 7 279 4 4 133 6 287 5 l281 -3 0 -280z m-2256 -439 c8 -9
11 -101 9 -317 l-3 -304 -285 0 -285 0 -3 304 c-2 216 1 308 9 317 9 11 65 14
279 14 214 0 270 -3 279 -14z m770 0 c8 -9 11 -101 9 -317 l-3 -304 -320 0
-320 0 -3 304 c-2 216 1 308 9 317 9 11 70 14 314 14 244 0 305 -3 314 -14z
m766 5 c4 -7 8 -491 5 -618 0 -10 -70 -13 -315 -13 l-315 0 0 313 c0 173 3
317 7 320 10 11 611 8 618 -2z m714 -5 c8 -9 11 -101 9 -317 l-3 -304 -285 0
-285 0 -3 304 c-2 216 1 308 9 317 9 11 65 14 279 14 214 0 270 -3 279 -14z
m-2245 -772 c11 -28 7 -524 -4 -545 -10 -18 -24 -19 -278 -19 -195 0 -271 3
-280 12 -9 9 -12 84 -12 274 0 144 3 269 6 278 5 14 40 16 284 16 244 0 279
-2 284 -16z m770 0 c3 -9 6 -132 6 -274 0 -222 -2 -261 -16 -274 -13 -14 -56
-16 -314 -16 -286 0 -300 1 -310 19 -11 21 -15 517 -4 545 5 14 43 16 319 16
276 0 314 -2 319 -16z m768 -255 c2 -149 0 -279 -4 -290 -7 -19 -18 -19 -315
-17 l-308 3 -3 288 -2 287 315 0 314 0 3 -271z m712 255 c11 -28 7 -524 -4
-545 -10 -18 -24 -19 -278 -19 -195 0 -271 3 -280 12 -9 9 -12 84 -12 274 0
144 3 269 6 278 5 14 40 16 284 16 244 0 279 -2 284 -16z"/>
</g>
</svg>
