<?xml version="1.0" standalone="no"?>
<!DOCTYPE svg PUBLIC "-//W3C//DTD SVG 20010904//EN"
 "http://www.w3.org/TR/2001/REC-SVG-20010904/DTD/svg10.dtd">
<svg version="1.0" xmlns="http://www.w3.org/2000/svg"
 width="50.000000pt" height="50.000000pt" viewBox="0 0 375.000000 219.000000"
 preserveAspectRatio="xMidYMid meet">
<g transform="translate(0.000000,219.000000) scale(0.100000,-0.100000)"
fill="#7c7c7c" stroke="none">
<path d="M10 2181 c0 -9 90 -124 114 -146 6 -5 47 -53 90 -105 44 -52 84 -99
90 -105 6 -5 45 -50 86 -100 41 -49 82 -97 90 -105 8 -9 51 -58 94 -110 44
-52 84 -99 90 -105 6 -5 47 -53 90 -105 44 -52 84 -99 90 -105 6 -5 45 -50 86
-100 41 -49 82 -97 90 -105 8 -9 49 -56 90 -105 41 -50 82 -97 90 -105 8 -9
49 -56 90 -105 41 -50 82 -97 90 -105 8 -9 49 -56 90 -105 41 -50 82 -97 90
-105 8 -9 39 -45 69 -80 58 -71 146 -172 201 -233 l36 -39 38 43 c21 24 50 58
65 74 15 17 62 73 106 125 44 52 87 101 95 110 8 8 49 55 90 105 41 49 82 96
90 105 8 8 49 55 90 105 41 49 82 96 90 105 8 8 49 55 90 105 41 49 82 96 90
105 8 8 49 55 90 105 41 49 82 96 90 105 8 8 49 55 90 105 41 49 82 96 90 105
8 8 49 56 90 105 41 50 80 95 86 100 6 6 46 53 90 105 43 52 86 101 94 110 8
8 49 56 90 105 41 50 80 95 86 100 24 22 114 137 114 146 0 5 -693 9 -1855 9
-1162 0 -1855 -4 -1855 -9z"/>
</g>
</svg>
